<?xml version="1.0" standalone="no"?>
<svg viewBox="0 0 200 200" xmlns="http://www.w3.org/2000/svg">
  <path fill="#0F62FE" d="M45.7,-77.6C58.5,-71.8,67.5,-58,72.2,-43.7C76.9,-29.4,77.3,-14.7,77.6,0.1C77.9,15,77.9,30,69.9,38.6C61.9,47.2,45.9,49.5,32.9,49.8C19.9,50.1,9.9,48.5,-0.2,48.8C-10.3,49.1,-20.6,51.3,-27.6,47.6C-34.7,43.8,-38.4,34.1,-41.6,25.2C-44.7,16.2,-47.1,8.1,-50.5,-1.9C-53.8,-12,-58,-23.9,-57.4,-37.2C-56.7,-50.4,-51.3,-64.9,-40.9,-72C-30.5,-79.1,-15.3,-78.9,0.6,-80C16.5,-81.1,33,-83.4,45.7,-77.6Z" transform="translate(100 100)" />
</svg>
