<svg xmlns="http://www.w3.org/2000/svg" xmlns:xlink="http://www.w3.org/1999/xlink" viewBox="0 0 400 400"><defs><style>.cls-1{isolation:isolate;}.cls-121,.cls-2{opacity:0.5;}.cls-115,.cls-116,.cls-117,.cls-118,.cls-119,.cls-120,.cls-121,.cls-122,.cls-123,.cls-124,.cls-125,.cls-126,.cls-127,.cls-128,.cls-2,.cls-56,.cls-58,.cls-59,.cls-6,.cls-60,.cls-78,.cls-79,.cls-87,.cls-88{mix-blend-mode:color-dodge;}.cls-2{fill:url(#radial-gradient);}.cls-109,.cls-110,.cls-111,.cls-112,.cls-113,.cls-129,.cls-131,.cls-3,.cls-5,.cls-77,.cls-86{mix-blend-mode:screen;}.cls-3{fill:url(#linear-gradient);}.cls-4{fill:url(#New_Gradient_Swatch_copy_7);}.cls-5{fill:url(#Radial_Gradient_1);}.cls-7{fill:url(#linear-gradient-2);}.cls-8{fill:url(#linear-gradient-3);}.cls-9{fill:url(#linear-gradient-4);}.cls-10{fill:url(#linear-gradient-5);}.cls-11{fill:url(#linear-gradient-6);}.cls-12{fill:url(#linear-gradient-7);}.cls-13{fill:url(#linear-gradient-8);}.cls-14{fill:url(#linear-gradient-9);}.cls-15{fill:url(#linear-gradient-10);}.cls-16{fill:url(#linear-gradient-11);}.cls-17{fill:url(#linear-gradient-12);}.cls-18{fill:url(#linear-gradient-13);}.cls-19{fill:url(#linear-gradient-14);}.cls-20{fill:url(#linear-gradient-15);}.cls-21{fill:url(#linear-gradient-16);}.cls-22{fill:url(#linear-gradient-17);}.cls-23{fill:url(#linear-gradient-18);}.cls-24{fill:url(#linear-gradient-19);}.cls-25{fill:url(#linear-gradient-20);}.cls-26{fill:url(#linear-gradient-21);}.cls-27{fill:url(#linear-gradient-22);}.cls-28{fill:url(#linear-gradient-23);}.cls-29{fill:url(#linear-gradient-24);}.cls-30{fill:url(#linear-gradient-25);}.cls-31{fill:url(#linear-gradient-26);}.cls-32{fill:url(#linear-gradient-27);}.cls-33{fill:url(#linear-gradient-28);}.cls-34{fill:url(#linear-gradient-29);}.cls-35{fill:url(#linear-gradient-30);}.cls-36{fill:url(#linear-gradient-31);}.cls-37{fill:url(#linear-gradient-32);}.cls-38{fill:url(#linear-gradient-33);}.cls-39{fill:url(#linear-gradient-34);}.cls-40{fill:url(#linear-gradient-35);}.cls-41{fill:url(#linear-gradient-36);}.cls-42{fill:url(#linear-gradient-37);}.cls-43{fill:url(#linear-gradient-38);}.cls-44{fill:url(#linear-gradient-39);}.cls-45{fill:url(#linear-gradient-40);}.cls-46{fill:url(#linear-gradient-41);}.cls-47{fill:url(#linear-gradient-42);}.cls-48{fill:url(#linear-gradient-43);}.cls-49{fill:url(#linear-gradient-44);}.cls-50{fill:url(#linear-gradient-45);}.cls-51{fill:url(#linear-gradient-46);}.cls-52{fill:url(#linear-gradient-47);}.cls-53{fill:url(#linear-gradient-48);}.cls-54{fill:url(#linear-gradient-49);}.cls-133,.cls-55{fill:#6b24d6;}.cls-115,.cls-56{opacity:0.8;}.cls-115,.cls-116,.cls-117,.cls-118,.cls-119,.cls-120,.cls-121,.cls-122,.cls-57{fill:#7c1dc9;}.cls-58{fill:url(#radial-gradient-2);}.cls-59{fill:url(#radial-gradient-3);}.cls-60{fill:url(#radial-gradient-4);}.cls-61,.cls-75{opacity:0.2;}.cls-62{opacity:0;}.cls-63{opacity:0.09;}.cls-64{opacity:0.18;}.cls-65{opacity:0.27;}.cls-66{opacity:0.36;}.cls-67{opacity:0.45;}.cls-68{opacity:0.55;}.cls-69{opacity:0.64;}.cls-70{opacity:0.73;}.cls-71{opacity:0.82;}.cls-72{opacity:0.91;}.cls-73{fill:url(#linear-gradient-50);}.cls-74{fill:url(#linear-gradient-51);}.cls-75{fill:url(#linear-gradient-52);}.cls-76{fill:url(#linear-gradient-53);}.cls-77{fill:url(#Radial_Gradient_1-2);}.cls-78{fill:url(#radial-gradient-5);}.cls-79{fill:url(#New_Gradient_Swatch_copy);}.cls-80{fill:url(#linear-gradient-54);}.cls-81{fill:url(#linear-gradient-55);}.cls-82{fill:url(#linear-gradient-56);}.cls-83{fill:url(#linear-gradient-57);}.cls-84{fill:url(#New_Gradient_Swatch_copy_38);}.cls-85{fill:url(#linear-gradient-58);}.cls-86{fill:url(#Radial_Gradient_1-3);}.cls-87{fill:url(#radial-gradient-6);}.cls-88{fill:url(#radial-gradient-7);}.cls-89{fill:url(#linear-gradient-59);}.cls-90{fill:url(#linear-gradient-60);}.cls-91{fill:url(#linear-gradient-61);}.cls-92{fill:url(#linear-gradient-62);}.cls-93{fill:url(#linear-gradient-63);}.cls-94{fill:url(#linear-gradient-64);}.cls-95{fill:url(#linear-gradient-65);}.cls-96{fill:url(#linear-gradient-66);}.cls-97{fill:url(#linear-gradient-67);}.cls-98{fill:#c7bcd6;}.cls-99{fill:url(#linear-gradient-68);}.cls-100{fill:url(#linear-gradient-69);}.cls-101{fill:url(#linear-gradient-70);}.cls-102{fill:url(#linear-gradient-71);}.cls-103{fill:url(#New_Gradient_Swatch_copy_7-2);}.cls-104{fill:url(#New_Gradient_Swatch_copy_7-3);}.cls-105{fill:url(#New_Gradient_Swatch_copy_9);}.cls-106{fill:url(#New_Gradient_Swatch_copy_9-2);}.cls-107{fill:#b086cc;}.cls-108{fill:url(#New_Gradient_Swatch_copy_8);}.cls-109{fill:url(#Radial_Gradient_1-4);}.cls-110{fill:url(#Radial_Gradient_1-5);}.cls-111{fill:url(#Radial_Gradient_1-6);}.cls-112{fill:url(#Radial_Gradient_1-7);}.cls-113{fill:url(#Radial_Gradient_1-8);}.cls-114{fill:#e0ecf7;}.cls-116{opacity:0.6;}.cls-117{opacity:0.4;}.cls-118{opacity:0.25;}.cls-119{opacity:0.15;}.cls-120{opacity:0.3;}.cls-123{fill:url(#radial-gradient-8);}.cls-124{fill:url(#radial-gradient-9);}.cls-125{fill:url(#radial-gradient-10);}.cls-126{fill:url(#radial-gradient-11);}.cls-127{fill:url(#radial-gradient-12);}.cls-128{fill:url(#radial-gradient-13);}.cls-129{fill:url(#linear-gradient-72);}.cls-130{fill:url(#New_Gradient_Swatch_copy_8-2);}.cls-131{fill:url(#linear-gradient-73);}.cls-132{fill:url(#New_Gradient_Swatch_copy_9-3);}.cls-133{font-size:6.86px;font-family:MyriadPro-Semibold, Myriad Pro;font-weight:600;}</style><radialGradient id="radial-gradient" cx="11375.2" cy="-376.59" r="180.05" gradientTransform="matrix(-0.81, 0, 0, 0.81, 9403.04, 498.83)" gradientUnits="userSpaceOnUse"><stop offset="0" stop-color="#fa45c1"/><stop offset="0.21" stop-color="#cb389d" stop-opacity="0.81"/><stop offset="0.67" stop-color="#571843" stop-opacity="0.35"/><stop offset="1" stop-opacity="0"/></radialGradient><linearGradient id="linear-gradient" x1="178.25" y1="107.23" x2="90.68" y2="107.23" gradientUnits="userSpaceOnUse"><stop offset="0" stop-color="#1bb0d4"/><stop offset="0.05" stop-color="#189dbd" stop-opacity="0.89"/><stop offset="0.18" stop-color="#12738b" stop-opacity="0.66"/><stop offset="0.31" stop-color="#0c5060" stop-opacity="0.45"/><stop offset="0.45" stop-color="#08333e" stop-opacity="0.29"/><stop offset="0.58" stop-color="#041d23" stop-opacity="0.16"/><stop offset="0.72" stop-color="#020d0f" stop-opacity="0.07"/><stop offset="0.85" stop-color="#000304" stop-opacity="0.02"/><stop offset="1" stop-opacity="0"/></linearGradient><linearGradient id="New_Gradient_Swatch_copy_7" x1="218.95" y1="205.38" x2="141.09" y2="69.99" gradientUnits="userSpaceOnUse"><stop offset="0.04" stop-color="#138bbd"/><stop offset="0.23" stop-color="#169ac7"/><stop offset="0.59" stop-color="#1fc3df"/><stop offset="1" stop-color="#2af6ff"/></linearGradient><radialGradient id="Radial_Gradient_1" cx="176.34" cy="131.3" r="46.21" gradientUnits="userSpaceOnUse"><stop offset="0" stop-color="#fff"/><stop offset="1"/></radialGradient><linearGradient id="linear-gradient-2" x1="163.2" y1="110.37" x2="168.92" y2="110.37" gradientUnits="userSpaceOnUse"><stop offset="0" stop-color="#fff"/><stop offset="0.94" stop-color="#9ec3e5"/></linearGradient><linearGradient id="linear-gradient-3" x1="159.9" y1="122.63" x2="165.59" y2="122.63" xlink:href="#linear-gradient-2"/><linearGradient id="linear-gradient-4" x1="158.93" y1="111.77" x2="165.29" y2="111.77" xlink:href="#linear-gradient-2"/><linearGradient id="linear-gradient-5" x1="158.61" y1="117.58" x2="161.84" y2="117.58" xlink:href="#linear-gradient-2"/><linearGradient id="linear-gradient-6" x1="148.47" y1="115.99" x2="153.73" y2="115.99" xlink:href="#linear-gradient-2"/><linearGradient id="linear-gradient-7" x1="163.53" y1="120.79" x2="168.03" y2="120.79" xlink:href="#linear-gradient-2"/><linearGradient id="linear-gradient-8" x1="161.56" y1="115.69" x2="164.23" y2="115.69" xlink:href="#linear-gradient-2"/><linearGradient id="linear-gradient-9" x1="170.61" y1="113.4" x2="172.07" y2="113.4" xlink:href="#linear-gradient-2"/><linearGradient id="linear-gradient-10" x1="154.43" y1="112.42" x2="159.87" y2="112.42" xlink:href="#linear-gradient-2"/><linearGradient id="linear-gradient-11" x1="166.98" y1="116.83" x2="175" y2="116.83" xlink:href="#linear-gradient-2"/><linearGradient id="linear-gradient-12" x1="150.11" y1="113.78" x2="156.95" y2="113.78" xlink:href="#linear-gradient-2"/><linearGradient id="linear-gradient-13" x1="151.76" y1="103.71" x2="157.1" y2="103.71" xlink:href="#linear-gradient-2"/><linearGradient id="linear-gradient-14" x1="158.79" y1="106.99" x2="161.51" y2="106.99" xlink:href="#linear-gradient-2"/><linearGradient id="linear-gradient-15" x1="155.41" y1="119.23" x2="158.24" y2="119.23" xlink:href="#linear-gradient-2"/><linearGradient id="linear-gradient-16" x1="173.5" y1="127.37" x2="180.79" y2="127.37" xlink:href="#linear-gradient-2"/><linearGradient id="linear-gradient-17" x1="144.2" y1="112.81" x2="146.78" y2="112.81" xlink:href="#linear-gradient-2"/><linearGradient id="linear-gradient-18" x1="138.93" y1="98.35" x2="150.4" y2="98.35" xlink:href="#linear-gradient-2"/><linearGradient id="linear-gradient-19" x1="175.19" y1="123.49" x2="177.88" y2="123.49" xlink:href="#linear-gradient-2"/><linearGradient id="linear-gradient-20" x1="176.69" y1="123.71" x2="189.28" y2="123.71" xlink:href="#linear-gradient-2"/><linearGradient id="linear-gradient-21" x1="165.92" y1="119.58" x2="173.52" y2="119.58" xlink:href="#linear-gradient-2"/><linearGradient id="linear-gradient-22" x1="173.76" y1="116.52" x2="179.81" y2="116.52" xlink:href="#linear-gradient-2"/><linearGradient id="linear-gradient-23" x1="144.2" y1="109.74" x2="148.43" y2="109.74" xlink:href="#linear-gradient-2"/><linearGradient id="linear-gradient-24" x1="169.72" y1="123.68" x2="171.83" y2="123.68" xlink:href="#linear-gradient-2"/><linearGradient id="linear-gradient-25" x1="144.2" y1="107.48" x2="152.74" y2="107.48" xlink:href="#linear-gradient-2"/><linearGradient id="linear-gradient-26" x1="167.16" y1="130.51" x2="174.01" y2="130.51" xlink:href="#linear-gradient-2"/><linearGradient id="linear-gradient-27" x1="144.2" y1="105.27" x2="157.24" y2="105.27" xlink:href="#linear-gradient-2"/><linearGradient id="linear-gradient-28" x1="159.9" y1="136.59" x2="165.59" y2="136.59" xlink:href="#linear-gradient-2"/><linearGradient id="linear-gradient-29" x1="158.93" y1="125.72" x2="165.29" y2="125.72" xlink:href="#linear-gradient-2"/><linearGradient id="linear-gradient-30" x1="158.61" y1="131.53" x2="161.84" y2="131.53" xlink:href="#linear-gradient-2"/><linearGradient id="linear-gradient-31" x1="148.47" y1="129.94" x2="153.73" y2="129.94" xlink:href="#linear-gradient-2"/><linearGradient id="linear-gradient-32" x1="163.53" y1="134.74" x2="168.03" y2="134.74" xlink:href="#linear-gradient-2"/><linearGradient id="linear-gradient-33" x1="161.56" y1="129.65" x2="164.23" y2="129.65" xlink:href="#linear-gradient-2"/><linearGradient id="linear-gradient-34" x1="154.43" y1="126.37" x2="159.87" y2="126.37" xlink:href="#linear-gradient-2"/><linearGradient id="linear-gradient-35" x1="150.11" y1="127.73" x2="156.95" y2="127.73" xlink:href="#linear-gradient-2"/><linearGradient id="linear-gradient-36" x1="155.41" y1="133.18" x2="158.24" y2="133.18" xlink:href="#linear-gradient-2"/><linearGradient id="linear-gradient-37" x1="173.5" y1="141.32" x2="180.79" y2="141.32" xlink:href="#linear-gradient-2"/><linearGradient id="linear-gradient-38" x1="144.2" y1="126.76" x2="146.78" y2="126.76" xlink:href="#linear-gradient-2"/><linearGradient id="linear-gradient-39" x1="175.19" y1="137.45" x2="177.88" y2="137.45" xlink:href="#linear-gradient-2"/><linearGradient id="linear-gradient-40" x1="165.92" y1="133.54" x2="173.52" y2="133.54" xlink:href="#linear-gradient-2"/><linearGradient id="linear-gradient-41" x1="144.2" y1="123.69" x2="148.43" y2="123.69" xlink:href="#linear-gradient-2"/><linearGradient id="linear-gradient-42" x1="169.72" y1="137.63" x2="171.83" y2="137.63" xlink:href="#linear-gradient-2"/><linearGradient id="linear-gradient-43" x1="144.2" y1="121.43" x2="152.74" y2="121.43" xlink:href="#linear-gradient-2"/><linearGradient id="linear-gradient-44" x1="157.69" y1="137.83" x2="160.36" y2="137.83" xlink:href="#linear-gradient-2"/><linearGradient id="linear-gradient-45" x1="150.56" y1="134.56" x2="156" y2="134.56" xlink:href="#linear-gradient-2"/><linearGradient id="linear-gradient-46" x1="171.32" y1="145.63" x2="174.01" y2="145.63" xlink:href="#linear-gradient-2"/><linearGradient id="linear-gradient-47" x1="162.05" y1="141.72" x2="169.65" y2="141.72" xlink:href="#linear-gradient-2"/><linearGradient id="linear-gradient-48" x1="140.33" y1="129.61" x2="148.87" y2="129.61" xlink:href="#linear-gradient-2"/><linearGradient id="linear-gradient-49" x1="144.2" y1="119.22" x2="157.24" y2="119.22" xlink:href="#linear-gradient-2"/><radialGradient id="radial-gradient-2" cx="662.02" cy="450.49" r="14.68" gradientTransform="matrix(-0.54, 0.84, 0.84, 0.54, 139.63, -732.63)" gradientUnits="userSpaceOnUse"><stop offset="0.09" stop-color="#fff"/><stop offset="0.1" stop-color="#e2dee7"/><stop offset="0.12" stop-color="#b0a5bf"/><stop offset="0.14" stop-color="#86749c"/><stop offset="0.16" stop-color="#634c80"/><stop offset="0.17" stop-color="#482d69"/><stop offset="0.19" stop-color="#35175a"/><stop offset="0.21" stop-color="#290a50"/><stop offset="0.23" stop-color="#25054d"/><stop offset="0.27" stop-color="#1d043c" stop-opacity="0.78"/><stop offset="0.34" stop-color="#120226" stop-opacity="0.5"/><stop offset="0.42" stop-color="#0a0115" stop-opacity="0.27"/><stop offset="0.51" stop-color="#040109" stop-opacity="0.12"/><stop offset="0.65" stop-color="#010002" stop-opacity="0.03"/><stop offset="1" stop-opacity="0"/></radialGradient><radialGradient id="radial-gradient-3" cx="651.87" cy="444.14" r="11.12" gradientTransform="matrix(-0.71, 0.71, 0.71, 0.71, 292.11, -713.44)" xlink:href="#radial-gradient-2"/><radialGradient id="radial-gradient-4" cx="643.63" cy="439.15" r="8.34" gradientTransform="matrix(0.47, 0.88, 0.88, -0.47, -552, -302.51)" xlink:href="#radial-gradient-2"/><linearGradient id="linear-gradient-50" x1="104.36" y1="255.96" x2="347.69" y2="255.96" gradientUnits="userSpaceOnUse"><stop offset="0.06" stop-color="#200041"/><stop offset="0.26" stop-color="#210243"/><stop offset="0.36" stop-color="#25084b"/><stop offset="0.43" stop-color="#2c1358"/><stop offset="0.47" stop-color="#311b61"/><stop offset="0.48" stop-color="#351f65"/><stop offset="0.5" stop-color="#422c73"/><stop offset="0.51" stop-color="#584188"/><stop offset="0.52" stop-color="#765fa7"/><stop offset="0.53" stop-color="#8770b8"/><stop offset="0.54" stop-color="#7e67ae"/><stop offset="0.56" stop-color="#5c468d"/><stop offset="0.59" stop-color="#442e75"/><stop offset="0.61" stop-color="#362066"/><stop offset="0.63" stop-color="#311b61"/><stop offset="0.67" stop-color="#2a1155"/><stop offset="0.75" stop-color="#230446"/><stop offset="0.81" stop-color="#200041"/><stop offset="1" stop-color="#200041"/></linearGradient><linearGradient id="linear-gradient-51" x1="91.36" y1="249.59" x2="325.46" y2="249.59" gradientUnits="userSpaceOnUse"><stop offset="0" stop-color="#311b61"/><stop offset="0.2" stop-color="#290f52"/><stop offset="0.49" stop-color="#200041"/><stop offset="1" stop-color="#0f001f"/></linearGradient><linearGradient id="linear-gradient-52" x1="105.99" y1="288.54" x2="349.32" y2="288.54" xlink:href="#linear-gradient-50"/><linearGradient id="linear-gradient-53" x1="93.98" y1="249.59" x2="322.84" y2="249.59" gradientUnits="userSpaceOnUse"><stop offset="0" stop-color="#3d065f"/><stop offset="1" stop-color="#5f27bd"/></linearGradient><radialGradient id="Radial_Gradient_1-2" cx="217.53" cy="291.13" r="87.85" xlink:href="#Radial_Gradient_1"/><radialGradient id="radial-gradient-5" cx="1311.36" cy="-1105.45" r="42.67" gradientTransform="matrix(1, 0, 0, 0.66, -1071.57, 1053.71)" gradientUnits="userSpaceOnUse"><stop offset="0" stop-color="#972a74"/><stop offset="0.04" stop-color="#8a266a" stop-opacity="0.92"/><stop offset="0.19" stop-color="#601b4a" stop-opacity="0.64"/><stop offset="0.35" stop-color="#3d112f" stop-opacity="0.41"/><stop offset="0.51" stop-color="#230a1b" stop-opacity="0.23"/><stop offset="0.67" stop-color="#0f040c" stop-opacity="0.1"/><stop offset="0.83" stop-color="#040103" stop-opacity="0.03"/><stop offset="1" stop-opacity="0"/></radialGradient><radialGradient id="New_Gradient_Swatch_copy" cx="1103.71" cy="-1763.95" r="32.72" gradientTransform="matrix(1, 0, 0, 0.59, -914.63, 1259.79)" gradientUnits="userSpaceOnUse"><stop offset="0" stop-color="#972a74"/><stop offset="0.04" stop-color="#8a266a"/><stop offset="0.19" stop-color="#601b4a"/><stop offset="0.35" stop-color="#3d112f"/><stop offset="0.51" stop-color="#230a1b"/><stop offset="0.67" stop-color="#0f040c"/><stop offset="0.83" stop-color="#040103"/><stop offset="1"/></radialGradient><linearGradient id="linear-gradient-54" x1="-370.07" y1="365.23" x2="-442.28" y2="310.65" gradientTransform="matrix(0.87, 0.5, -1.5, 0.29, 1050.65, 359.68)" gradientUnits="userSpaceOnUse"><stop offset="0" stop-color="#3d065f"/><stop offset="1" stop-color="#260556"/></linearGradient><linearGradient id="linear-gradient-55" x1="4877.77" y1="27.84" x2="4634.23" y2="239.38" gradientTransform="matrix(-1, 0, 0, 1, 4981.35, 0)" gradientUnits="userSpaceOnUse"><stop offset="0.19" stop-color="#3d065f"/><stop offset="0.93" stop-color="#3d065f"/></linearGradient><linearGradient id="linear-gradient-56" x1="4875.19" y1="30.08" x2="4635.75" y2="238.06" gradientTransform="matrix(-1, 0, 0, 1, 4981.35, 0)" xlink:href="#linear-gradient-51"/><linearGradient id="linear-gradient-57" x1="147.69" y1="32.42" x2="379.09" y2="304.68" gradientUnits="userSpaceOnUse"><stop offset="0.01" stop-color="#2af6ff"/><stop offset="0.06" stop-color="#3ec0f2"/><stop offset="0.11" stop-color="#518fe5"/><stop offset="0.16" stop-color="#6066db"/><stop offset="0.21" stop-color="#6c46d3"/><stop offset="0.26" stop-color="#752fce"/><stop offset="0.3" stop-color="#7a22ca"/><stop offset="0.34" stop-color="#7c1dc9"/><stop offset="0.49" stop-color="#5e1699"/><stop offset="0.74" stop-color="#300b4e"/><stop offset="0.91" stop-color="#13051f"/><stop offset="1" stop-color="#08020d"/></linearGradient><linearGradient id="New_Gradient_Swatch_copy_38" x1="167.43" y1="55.43" x2="336.23" y2="254.45" gradientUnits="userSpaceOnUse"><stop offset="0" stop-color="#7c1dc9"/><stop offset="0.03" stop-color="#741bbd"/><stop offset="0.16" stop-color="#56148b"/><stop offset="0.3" stop-color="#3b0e60"/><stop offset="0.43" stop-color="#26093e"/><stop offset="0.57" stop-color="#150523"/><stop offset="0.71" stop-color="#09020f"/><stop offset="0.85" stop-color="#020104"/><stop offset="1"/></linearGradient><linearGradient id="linear-gradient-58" x1="1345.42" y1="264.17" x2="1225.71" y2="72.89" gradientTransform="translate(-985.6)" xlink:href="#linear-gradient-50"/><radialGradient id="Radial_Gradient_1-3" cx="1311.26" cy="146.65" r="20.35" gradientTransform="translate(-985.6)" xlink:href="#Radial_Gradient_1"/><radialGradient id="radial-gradient-6" cx="397.17" cy="7296.76" r="9.54" gradientTransform="matrix(0, 1, -0.66, 0, 5170.98, -253.62)" xlink:href="#New_Gradient_Swatch_copy"/><radialGradient id="radial-gradient-7" cx="188.01" cy="80.23" r="51.42" gradientUnits="userSpaceOnUse"><stop offset="0" stop-color="#dc3daa"/><stop offset="0.07" stop-color="#bd3492" stop-opacity="0.86"/><stop offset="0.2" stop-color="#8b276b" stop-opacity="0.63"/><stop offset="0.33" stop-color="#601b4a" stop-opacity="0.44"/><stop offset="0.46" stop-color="#3e1130" stop-opacity="0.28"/><stop offset="0.59" stop-color="#230a1b" stop-opacity="0.16"/><stop offset="0.72" stop-color="#0f040c" stop-opacity="0.07"/><stop offset="0.86" stop-color="#040103" stop-opacity="0.02"/><stop offset="1" stop-opacity="0"/></radialGradient><linearGradient id="linear-gradient-59" x1="257.2" y1="202.23" x2="215.34" y2="247.81" gradientUnits="userSpaceOnUse"><stop offset="0" stop-color="#3d065f"/><stop offset="1" stop-color="#12054e"/><stop offset="1" stop-color="#10054d"/></linearGradient><linearGradient id="linear-gradient-60" x1="202.04" y1="214.35" x2="202.04" y2="232.98" gradientUnits="userSpaceOnUse"><stop offset="0" stop-color="#3d065f"/><stop offset="1" stop-color="#521b9a"/></linearGradient><linearGradient id="linear-gradient-61" x1="214.11" y1="201.58" x2="198.99" y2="220.06" gradientUnits="userSpaceOnUse"><stop offset="0" stop-color="#3d065f"/><stop offset="0.77" stop-color="#5e26ba"/><stop offset="1" stop-color="#6f2bcf"/></linearGradient><linearGradient id="linear-gradient-62" x1="216.42" y1="222.3" x2="216.42" y2="242.54" xlink:href="#linear-gradient-60"/><linearGradient id="linear-gradient-63" x1="228.48" y1="209.52" x2="213.36" y2="228" xlink:href="#linear-gradient-61"/><linearGradient id="linear-gradient-64" x1="230.79" y1="231.4" x2="230.79" y2="247.44" xlink:href="#linear-gradient-60"/><linearGradient id="linear-gradient-65" x1="242.86" y1="217.45" x2="227.74" y2="235.93" xlink:href="#linear-gradient-61"/><linearGradient id="linear-gradient-66" x1="245.17" y1="239.42" x2="245.17" y2="253.68" xlink:href="#linear-gradient-60"/><linearGradient id="linear-gradient-67" x1="257.23" y1="225.38" x2="242.11" y2="243.87" xlink:href="#linear-gradient-61"/><linearGradient id="linear-gradient-68" x1="209.1" y1="239.56" x2="204.78" y2="261.85" xlink:href="#linear-gradient-60"/><linearGradient id="linear-gradient-69" x1="228.02" y1="213.13" x2="204.37" y2="242.04" xlink:href="#linear-gradient-61"/><linearGradient id="linear-gradient-70" x1="252.07" y1="255.95" x2="254.69" y2="272.15" xlink:href="#linear-gradient-60"/><linearGradient id="linear-gradient-71" x1="278.53" y1="219.82" x2="245.28" y2="260.46" xlink:href="#linear-gradient-61"/><linearGradient id="New_Gradient_Swatch_copy_7-2" x1="308.94" y1="218.55" x2="256.19" y2="151.92" xlink:href="#New_Gradient_Swatch_copy_7"/><linearGradient id="New_Gradient_Swatch_copy_7-3" x1="225.11" y1="178.12" x2="194.11" y2="124.21" xlink:href="#New_Gradient_Swatch_copy_7"/><linearGradient id="New_Gradient_Swatch_copy_9" x1="261.75" y1="135.07" x2="249.72" y2="99.9" gradientUnits="userSpaceOnUse"><stop offset="0.04" stop-color="#9f19ab"/><stop offset="0.24" stop-color="#ae25b1"/><stop offset="0.65" stop-color="#d744bf"/><stop offset="1" stop-color="#ff63ce"/></linearGradient><linearGradient id="New_Gradient_Swatch_copy_9-2" x1="261.82" y1="214.39" x2="242.85" y2="181.54" xlink:href="#New_Gradient_Swatch_copy_9"/><linearGradient id="New_Gradient_Swatch_copy_8" x1="268.37" y1="172.73" x2="246.85" y2="136.87" gradientUnits="userSpaceOnUse"><stop offset="0.04" stop-color="#ffa98c"/><stop offset="0.32" stop-color="#ffb892"/><stop offset="0.86" stop-color="#fee1a3"/><stop offset="1" stop-color="#feeca8"/></linearGradient><radialGradient id="Radial_Gradient_1-4" cx="291.37" cy="196.36" r="18.4" xlink:href="#Radial_Gradient_1"/><radialGradient id="Radial_Gradient_1-5" cx="208.15" cy="148.62" r="18.4" xlink:href="#Radial_Gradient_1"/><radialGradient id="Radial_Gradient_1-6" cx="256.86" cy="119.31" r="16.56" xlink:href="#Radial_Gradient_1"/><radialGradient id="Radial_Gradient_1-7" cx="255.36" cy="202.24" r="16.56" xlink:href="#Radial_Gradient_1"/><radialGradient id="Radial_Gradient_1-8" cx="255.78" cy="149.65" r="15.27" xlink:href="#Radial_Gradient_1"/><radialGradient id="radial-gradient-8" cx="268.92" cy="344.33" r="12.22" gradientUnits="userSpaceOnUse"><stop offset="0.09" stop-color="#ff63ce"/><stop offset="0.09" stop-color="#fd62cd"/><stop offset="0.11" stop-color="#c54aac"/><stop offset="0.13" stop-color="#94358f"/><stop offset="0.15" stop-color="#6c2477"/><stop offset="0.17" stop-color="#4d1665"/><stop offset="0.19" stop-color="#370d58"/><stop offset="0.21" stop-color="#2a0750"/><stop offset="0.23" stop-color="#25054d"/><stop offset="0.27" stop-color="#1d043c" stop-opacity="0.78"/><stop offset="0.34" stop-color="#120226" stop-opacity="0.5"/><stop offset="0.42" stop-color="#0a0115" stop-opacity="0.27"/><stop offset="0.51" stop-color="#040109" stop-opacity="0.12"/><stop offset="0.65" stop-color="#010002" stop-opacity="0.03"/><stop offset="1" stop-opacity="0"/></radialGradient><radialGradient id="radial-gradient-9" cx="152.92" cy="289.08" r="12.22" xlink:href="#radial-gradient-8"/><radialGradient id="radial-gradient-10" cx="115.9" cy="177.33" r="12.22" xlink:href="#radial-gradient-8"/><radialGradient id="radial-gradient-11" cx="10235.63" cy="6365.97" r="14.68" gradientTransform="matrix(-0.33, -0.94, -0.94, 0.33, 9744.3, 7791.03)" xlink:href="#radial-gradient-2"/><radialGradient id="radial-gradient-12" cx="10225.48" cy="6359.61" r="11.12" gradientTransform="matrix(0.7, -0.71, -0.71, -0.7, -2320.16, 11972.53)" xlink:href="#radial-gradient-2"/><radialGradient id="radial-gradient-13" cx="10217.25" cy="6354.63" r="8.34" gradientTransform="matrix(-0.47, -0.88, -0.88, 0.47, 10806.03, 6239.44)" xlink:href="#radial-gradient-2"/><linearGradient id="linear-gradient-72" x1="9783.57" y1="5609.11" x2="9744.94" y2="5609.11" gradientTransform="translate(10131.6 5798.2) rotate(180)" gradientUnits="userSpaceOnUse"><stop offset="0" stop-color="#ffe4a7"/><stop offset="0.02" stop-color="#f7dda2" stop-opacity="0.97"/><stop offset="0.13" stop-color="#beaa7c" stop-opacity="0.74"/><stop offset="0.25" stop-color="#8b7c5b" stop-opacity="0.55"/><stop offset="0.37" stop-color="#60563f" stop-opacity="0.38"/><stop offset="0.49" stop-color="#3e3728" stop-opacity="0.24"/><stop offset="0.62" stop-color="#231f17" stop-opacity="0.14"/><stop offset="0.74" stop-color="#0f0e0a" stop-opacity="0.06"/><stop offset="0.87" stop-color="#040302" stop-opacity="0.01"/><stop offset="1" stop-opacity="0"/></linearGradient><linearGradient id="New_Gradient_Swatch_copy_8-2" x1="365.29" y1="192.71" x2="351.65" y2="169.97" xlink:href="#New_Gradient_Swatch_copy_8"/><linearGradient id="linear-gradient-73" x1="9788.66" y1="5646.26" x2="9750.03" y2="5646.26" gradientTransform="translate(10131.6 5798.2) rotate(180)" gradientUnits="userSpaceOnUse"><stop offset="0" stop-color="#c211a1"/><stop offset="0.01" stop-color="#bd119d" stop-opacity="0.97"/><stop offset="0.15" stop-color="#8b0c73" stop-opacity="0.72"/><stop offset="0.29" stop-color="#600850" stop-opacity="0.5"/><stop offset="0.42" stop-color="#3e0533" stop-opacity="0.32"/><stop offset="0.56" stop-color="#23031d" stop-opacity="0.18"/><stop offset="0.7" stop-color="#0f010d" stop-opacity="0.08"/><stop offset="0.85" stop-color="#040003" stop-opacity="0.02"/><stop offset="1" stop-opacity="0"/></linearGradient><linearGradient id="New_Gradient_Swatch_copy_9-3" x1="349.61" y1="149.19" x2="341.46" y2="125.37" xlink:href="#New_Gradient_Swatch_copy_9"/></defs><g class="cls-1"><g id="Layer_1" data-name="Layer 1"><ellipse class="cls-2" cx="224.4" cy="194.1" rx="145.3" ry="145.7"/><polygon class="cls-3" points="178.3 155.7 90.7 105.2 90.7 58.7 178.3 109.3 178.3 155.7"/><polygon class="cls-4" points="220.1 179.8 132.6 129.2 132.6 82.8 220.1 133.3 220.1 179.8"/><polygon class="cls-5" points="132.6 82.8 132.6 84.6 219 134.5 219 179.1 220.1 179.8 220.1 133.3 132.6 82.8"/><g class="cls-6"><polygon class="cls-7" points="163.2 109.6 168.9 112.9 168.9 111.2 163.2 107.9 163.2 109.6"/><polygon class="cls-8" points="165.6 123.4 159.9 120.1 159.9 121.8 165.6 125.1 165.6 123.4"/><polygon class="cls-9" points="165.3 114.4 165.3 112.7 158.9 109.1 158.9 110.8 165.3 114.4"/><polygon class="cls-10" points="158.6 115.8 158.6 117.5 161.8 119.4 161.8 117.7 158.6 115.8"/><polygon class="cls-11" points="153.7 118.3 153.7 116.6 148.5 113.7 148.5 115.3 153.7 118.3"/><polygon class="cls-12" points="168 121.2 163.5 118.6 163.5 120.3 168 122.9 168 121.2"/><polygon class="cls-13" points="161.6 114.1 161.6 115.8 164.2 117.3 164.2 115.6 161.6 114.1"/><polygon class="cls-14" points="170.6 112.1 170.6 113.8 172.1 114.7 172.1 113 170.6 112.1"/><polygon class="cls-15" points="159.9 114.8 159.9 113.1 154.4 110 154.4 111.7 159.9 114.8"/><polygon class="cls-16" points="167 113.7 167 115.4 175 120 175 118.3 167 113.7"/><polygon class="cls-17" points="156.9 116.5 156.9 114.8 150.1 111 150.1 112.7 156.9 116.5"/><polygon class="cls-18" points="151.8 101.3 151.8 103 157.1 106.1 157.1 104.4 151.8 101.3"/><polygon class="cls-19" points="161.5 106.9 158.8 105.4 158.8 107.1 161.5 108.6 161.5 106.9"/><polygon class="cls-20" points="158.2 119.2 155.4 117.6 155.4 119.3 158.2 120.9 158.2 119.2"/><polygon class="cls-21" points="173.5 126.1 180.8 130.3 180.8 128.6 173.5 124.4 173.5 126.1"/><polygon class="cls-22" points="146.8 112.7 144.2 111.2 144.2 112.9 146.8 114.4 146.8 112.7"/><polygon class="cls-23" points="138.9 94.2 138.9 95.9 150.4 102.5 150.4 100.8 138.9 94.2"/><polygon class="cls-24" points="175.2 123.6 177.9 125.1 177.9 123.4 175.2 121.9 175.2 123.6"/><polygon class="cls-25" points="176.7 120.9 189.3 128.2 189.3 126.5 176.7 119.3 176.7 120.9"/><polygon class="cls-26" points="165.9 118.3 173.5 122.6 173.5 120.9 165.9 116.6 165.9 118.3"/><polygon class="cls-27" points="173.8 113.9 173.8 115.6 179.8 119.1 179.8 117.4 173.8 113.9"/><polygon class="cls-28" points="148.4 110.1 144.2 107.7 144.2 109.4 148.4 111.8 148.4 110.1"/><polygon class="cls-29" points="171.8 123.4 169.7 122.2 169.7 123.9 171.8 125.1 171.8 123.4"/><polygon class="cls-30" points="152.7 109.1 144.2 104.2 144.2 105.9 152.7 110.8 152.7 109.1"/><polygon class="cls-31" points="167.2 129.4 174 133.3 174 131.6 167.2 127.7 167.2 129.4"/><polygon class="cls-32" points="157.2 108.2 144.2 100.7 144.2 102.4 157.2 109.8 157.2 108.2"/></g><g class="cls-6"><polygon class="cls-33" points="165.6 137.4 159.9 134.1 159.9 135.8 165.6 139.1 165.6 137.4"/><polygon class="cls-34" points="165.3 128.4 165.3 126.7 158.9 123.1 158.9 124.8 165.3 128.4"/><polygon class="cls-35" points="158.6 129.8 158.6 131.4 161.8 133.3 161.8 131.6 158.6 129.8"/><polygon class="cls-36" points="153.7 132.3 153.7 130.6 148.5 127.6 148.5 129.3 153.7 132.3"/><polygon class="cls-37" points="168 135.2 163.5 132.6 163.5 134.3 168 136.9 168 135.2"/><polygon class="cls-38" points="161.6 128 161.6 129.7 164.2 131.3 164.2 129.6 161.6 128"/><polygon class="cls-39" points="159.9 128.8 159.9 127.1 154.4 124 154.4 125.7 159.9 128.8"/><polygon class="cls-40" points="156.9 130.5 156.9 128.8 150.1 125 150.1 126.7 156.9 130.5"/><polygon class="cls-41" points="158.2 133.1 155.4 131.5 155.4 133.2 158.2 134.8 158.2 133.1"/><polygon class="cls-42" points="173.5 140 180.8 144.3 180.8 142.6 173.5 138.4 173.5 140"/><polygon class="cls-43" points="146.8 126.7 144.2 125.2 144.2 126.9 146.8 128.3 146.8 126.7"/><polygon class="cls-44" points="175.2 137.5 177.9 139.1 177.9 137.4 175.2 135.8 175.2 137.5"/><polygon class="cls-45" points="165.9 132.2 173.5 136.5 173.5 134.9 165.9 130.5 165.9 132.2"/><polygon class="cls-46" points="148.4 124 144.2 121.7 144.2 123.4 148.4 125.7 148.4 124"/><polygon class="cls-47" points="171.8 137.4 169.7 136.2 169.7 137.9 171.8 139.1 171.8 137.4"/><polygon class="cls-48" points="152.7 123 144.2 118.2 144.2 119.8 152.7 124.7 152.7 123"/><polygon class="cls-49" points="157.7 136.2 157.7 137.9 160.4 139.4 160.4 137.7 157.7 136.2"/><polygon class="cls-50" points="156 137 156 135.3 150.6 132.2 150.6 133.9 156 137"/><polygon class="cls-51" points="171.3 145.7 174 147.3 174 145.6 171.3 144 171.3 145.7"/><polygon class="cls-52" points="162.1 140.4 169.7 144.7 169.7 143 162.1 138.7 162.1 140.4"/><polygon class="cls-53" points="148.9 131.2 140.3 126.3 140.3 128 148.9 132.9 148.9 131.2"/><polygon class="cls-54" points="157.2 122.1 144.2 114.6 144.2 116.3 157.2 123.8 157.2 122.1"/></g><g class="cls-6"><path class="cls-55" d="M237.1,360.7l-2.1-.2a.4.4,0,0,1-.4-.4.5.5,0,0,1,.5-.4l2,.2a.4.4,0,1,1,0,.8Z"/><path class="cls-55" d="M238.7,360.3c0-.3.1-.5.4-.5l1.9-.4a.4.4,0,0,1,.5.3c.1.2,0,.4-.3.5l-2,.4h-.1C238.9,360.6,238.7,360.5,238.7,360.3Z"/><path class="cls-55" d="M232.9,360.1l-2-.7a.4.4,0,0,1-.2-.6.5.5,0,0,1,.6-.2,9.6,9.6,0,0,0,1.8.7c.3.1.4.3.3.5s-.2.3-.4.3Z"/><path class="cls-55" d="M242.7,359.2c-.1-.2,0-.4.2-.6l1.7-1a.5.5,0,0,1,.6.2.4.4,0,0,1-.2.5l-1.7,1.1-.3-.4.2.4H243Z"/><path class="cls-55" d="M229.1,358.4l-1.8-1a.5.5,0,0,1-.2-.6c.2-.2.4-.3.6-.1l1.8,1a.4.4,0,0,1,.1.6l-.3.2Z"/><path class="cls-55" d="M246.3,357.2a.4.4,0,0,1,.1-.6l1.8-1c.2-.2.4-.1.5.1a.4.4,0,0,1-.1.6l-1.8,1h-.2C246.5,357.4,246.3,357.3,246.3,357.2Z"/><path class="cls-55" d="M225.5,356.4l-1.8-1.1c-.2-.1-.2-.3-.1-.5a.5.5,0,0,1,.6-.2l1.7,1a.5.5,0,0,1,.2.6.5.5,0,0,1-.4.2Z"/><path class="cls-55" d="M249.8,355.1a.5.5,0,0,1,.2-.6l1.7-1a.5.5,0,0,1,.6.2.4.4,0,0,1-.2.5l-1.7,1.1h-.2Z"/><path class="cls-55" d="M222,354.3l-1.8-1a.5.5,0,0,1-.2-.6c.2-.2.4-.3.6-.1l1.8,1c.2.1.3.3.1.5a.3.3,0,0,1-.3.3Z"/><path class="cls-55" d="M253.4,353c-.2-.2-.1-.4.1-.5l1.8-1c.2-.2.4-.1.6.1a.5.5,0,0,1-.2.6l-1.8,1h-.2A.3.3,0,0,1,253.4,353Z"/><path class="cls-55" d="M218.4,352.2l-1.8-1c-.2-.1-.2-.3-.1-.5a.5.5,0,0,1,.6-.2l1.7,1a.5.5,0,0,1,.2.6.5.5,0,0,1-.4.2Z"/><path class="cls-55" d="M256.9,351a.5.5,0,0,1,.2-.6l1.7-1a.5.5,0,0,1,.6.2c.1.2.1.4-.1.5l-1.8,1h-.2Z"/><path class="cls-55" d="M214.9,350.2l-1.8-1a.5.5,0,0,1-.2-.6.4.4,0,0,1,.6-.1l1.8,1c.2.1.2.3.1.5a.3.3,0,0,1-.3.3Z"/><path class="cls-55" d="M260.5,348.9c-.1-.2-.1-.4.1-.5l1.8-1c.2-.2.4-.1.6.1a.5.5,0,0,1-.2.6l-1.8,1h-.2A.3.3,0,0,1,260.5,348.9Z"/><path class="cls-55" d="M211.3,348.1l-1.8-1c-.2-.1-.2-.3-.1-.5a.4.4,0,0,1,.5-.2l1.8,1a.5.5,0,0,1,.2.6l-.4.2Z"/><path class="cls-55" d="M264,346.9a.5.5,0,0,1,.2-.6l1.8-1c.1-.1.4,0,.5.2s.1.4-.1.5l-1.8,1h-.2A.5.5,0,0,1,264,346.9Z"/><path class="cls-55" d="M207.8,346.1l-1.8-1a.4.4,0,1,1,.4-.8l1.8,1.1c.2.1.2.3.1.5s-.2.2-.3.2Z"/><path class="cls-55" d="M269.9,318l-1.8-1c-.2-.1-.3-.3-.1-.5a.4.4,0,0,1,.5-.2l1.8,1a.5.5,0,0,1,.2.6l-.4.2Z"/><path class="cls-55" d="M266.3,316l-1.7-1a.5.5,0,0,1-.2-.6.4.4,0,0,1,.6-.1l1.7,1a.4.4,0,0,1,.2.5c-.1.2-.2.3-.4.3Z"/><path class="cls-55" d="M262.8,313.9l-1.8-1c-.2-.1-.3-.3-.1-.5a.4.4,0,0,1,.5-.2l1.8,1a.4.4,0,0,1,.1.6l-.3.2C262.9,314,262.8,314,262.8,313.9Z"/><path class="cls-55" d="M128.4,210.2l-1.8-1a.5.5,0,0,1-.2-.6.5.5,0,0,1,.6-.1l1.8,1a.4.4,0,0,1,.1.6l-.3.2C128.5,210.3,128.4,210.3,128.4,210.2Z"/><path class="cls-55" d="M124.8,208.2l-1.8-1.1c-.2-.1-.2-.3-.1-.5a.5.5,0,0,1,.6-.2l1.7,1c.2.2.3.4.2.6l-.4.2Z"/><path class="cls-55" d="M121.3,206.1l-1.8-1a.5.5,0,0,1-.2-.6.5.5,0,0,1,.6-.1l1.8,1c.2.1.2.4.1.6l-.3.2Z"/><path class="cls-55" d="M267.6,344.8c-.1-.2-.1-.4.1-.5l1.8-1.1a.4.4,0,1,1,.4.8l-1.8,1h-.2C267.8,345,267.7,345,267.6,344.8Z"/><path class="cls-55" d="M66.3,209.6c-.1-.2-.1-.5.1-.6l1.8-1c.2-.1.5-.1.6.1a.5.5,0,0,1-.2.6l-1.7,1h-.2A.5.5,0,0,1,66.3,209.6Z"/><path class="cls-55" d="M69.8,207.5a.4.4,0,0,1,.2-.5l1.8-1.1a.4.4,0,0,1,.5.2c.2.2.1.4-.1.5l-1.8,1.1h-.2A.4.4,0,0,1,69.8,207.5Z"/><path class="cls-55" d="M73.4,205.5a.5.5,0,0,1,.2-.6l1.7-1c.2-.1.5-.1.6.1a.5.5,0,0,1-.2.6l-1.7,1h-.2Z"/><path class="cls-55" d="M310.3,318.3a.5.5,0,0,1,.1-.6l1.8-1a.5.5,0,0,1,.6.2.4.4,0,0,1-.2.5l-1.7,1.1h-.2A.5.5,0,0,1,310.3,318.3Z"/><path class="cls-55" d="M313.9,316.3a.4.4,0,0,1,.1-.6l1.8-1c.2-.1.4-.1.5.1a.4.4,0,0,1-.1.6l-1.8,1h-.2Z"/><path class="cls-55" d="M317.4,314.2c-.1-.2,0-.4.2-.6l1.7-1a.5.5,0,0,1,.6.2.4.4,0,0,1-.2.5l-1.7,1.1h-.2Z"/><path class="cls-55" d="M153.5,288.1c-.1-.2-.1-.4.1-.5l1.8-1.1a.5.5,0,0,1,.6.2c.1.2,0,.4-.2.6l-1.7,1h-.2C153.7,288.3,153.6,288.3,153.5,288.1Z"/><path class="cls-55" d="M157,286.1a.5.5,0,0,1,.2-.6l1.8-1c.2-.1.4-.1.5.1a.4.4,0,0,1-.1.6l-1.8,1c0,.1-.1.1-.2.1Z"/><path class="cls-55" d="M160.6,284a.4.4,0,0,1,.2-.5l1.7-1.1a.5.5,0,0,1,.6.2c.1.2,0,.4-.2.6l-1.7,1H161C160.8,284.2,160.7,284.2,160.6,284Z"/><path class="cls-55" d="M161.1,187.3l-1.8-1.1c-.2-.1-.3-.3-.1-.5a.4.4,0,0,1,.5-.2l1.8,1.1c.2.1.3.3.1.5s-.2.2-.3.2Zm-3.6-2.1-1.8-1c-.2-.1-.2-.4-.1-.6s.4-.2.6-.1l1.7,1a.5.5,0,0,1,.2.6.5.5,0,0,1-.4.2Zm-3.5-2-1.8-1.1a.4.4,0,0,1-.2-.5c.2-.2.4-.3.6-.2l1.8,1.1c.2.1.3.3.1.5s-.2.2-.3.2Zm-3.6-2.1-1.8-1c-.2-.1-.2-.4-.1-.6s.4-.2.6-.1l1.7,1a.5.5,0,0,1,.2.6l-.4.2Zm-3.5-2-1.8-1.1a.4.4,0,0,1-.2-.5.5.5,0,0,1,.6-.2l1.8,1a.5.5,0,0,1,.1.6l-.3.2ZM115.2,178a.5.5,0,0,1,.2-.6l1.7-1c.2-.1.5-.1.6.1a.5.5,0,0,1-.2.6l-1.7,1h-.2Zm28.1-1-1.8-1c-.2-.1-.2-.4-.1-.6s.3-.2.5-.1l1.8,1a.5.5,0,0,1,.2.6l-.4.2Zm-24.5-1.1c-.2-.2-.1-.4.1-.6l1.8-1c.2-.1.4,0,.6.2a.4.4,0,0,1-.2.5l-1.8,1.1h-.2Zm21-.9-1.8-1.1a.4.4,0,0,1-.2-.5.5.5,0,0,1,.6-.2l1.8,1a.5.5,0,0,1,.1.6l-.3.2Zm42.6,24.6-1.8-1a.6.6,0,0,1-.1-.6.4.4,0,0,1,.6-.1l1.7,1a.5.5,0,0,1,.2.6l-.4.2Zm-3.5-2-1.8-1.1a.4.4,0,0,1-.2-.5c.2-.2.4-.3.6-.2l1.8,1a.4.4,0,0,1,.1.6l-.3.2Zm-3.6-2.1-1.8-1c-.2-.1-.2-.4-.1-.6a.4.4,0,0,1,.6-.1l1.7,1a.5.5,0,0,1,.2.6l-.4.2Zm-3.5-2.1-1.8-1a.4.4,0,0,1-.2-.5.5.5,0,0,1,.6-.2l1.8,1c.2.1.2.4.1.6l-.3.2Zm-3.6-2-1.8-1c-.2-.1-.2-.4-.1-.6s.3-.3.5-.1l1.8,1a.4.4,0,0,1,.2.5c-.1.2-.2.3-.4.3Zm-3.5-2.1-1.8-1a.4.4,0,0,1-.2-.5.5.5,0,0,1,.6-.2l1.8,1c.2.1.2.4.1.6l-.3.2Zm-42.4-15.4a.5.5,0,0,1,.2-.6l1.7-1c.2-.1.5-.1.6.1a.5.5,0,0,1-.2.6l-1.7,1h-.2Zm13.9-.9-1.9-.7c-.2,0-.3-.3-.3-.5a.6.6,0,0,1,.6-.3l1.9.7c.3.1.3.4.3.6l-.4.2Zm-10.3-1a.6.6,0,0,1,.3-.6l2.1-.4a.7.7,0,0,1,.5.4.4.4,0,0,1-.4.4l-1.9.4h-.2Zm6.5-.1-2-.2a.4.4,0,0,1-.4-.4.4.4,0,0,1,.4-.4l2.1.2a.3.3,0,0,1,.3.5c0,.2-.2.3-.4.3Z"/><path class="cls-55" d="M133.2,322.4l-2.1-.2a.4.4,0,0,1-.4-.4c0-.3.3-.4.5-.4l2,.2a.4.4,0,1,1,0,.8Zm1.6-.5a.4.4,0,0,1,.4-.4l1.9-.4a.3.3,0,0,1,.5.3c.1.2,0,.4-.3.5l-2,.4h-.1A.4.4,0,0,1,134.8,321.9Zm-5.8-.1-2-.7a.4.4,0,0,1,.4-.8,9.6,9.6,0,0,0,1.8.7c.3.1.4.3.3.5s-.2.3-.4.3Zm9.8-.9c-.1-.2-.1-.5.1-.6l1.8-1c.2-.1.5-.1.6.1a.5.5,0,0,1-.2.6l-1.8,1-.2-.3.2.4h-.2Zm-13.6-.8-1.8-1c-.2-.2-.3-.4-.2-.6s.4-.3.6-.2l1.8,1.1c.2.1.3.3.1.5s-.2.2-.3.2Zm17.1-1.3a.4.4,0,0,1,.2-.5l1.8-1.1a.4.4,0,0,1,.5.2c.2.2.1.4-.1.6l-1.8,1h-.2A.4.4,0,0,1,142.3,318.8Zm-20.7-.8-1.8-1c-.2-.1-.2-.4-.1-.6s.4-.2.6-.1l1.7,1a.5.5,0,0,1,.2.6.5.5,0,0,1-.4.2Zm24.3-1.2a.5.5,0,0,1,.2-.6l1.7-1c.2-.1.5-.1.6.1a.5.5,0,0,1-.2.6l-1.7,1h-.2A.5.5,0,0,1,145.9,316.8Zm-27.8-.8-1.8-1c-.2-.2-.3-.4-.2-.6s.4-.3.6-.2l1.8,1.1c.2.1.2.3.1.5s-.2.2-.3.2Zm31.4-1.3c-.2-.2-.1-.4.1-.5l1.8-1.1c.2-.1.4,0,.6.2s0,.4-.2.6l-1.8,1h-.2C149.7,314.9,149.5,314.9,149.5,314.7Zm-35-.8-1.8-1c-.2-.1-.2-.4-.1-.6s.4-.2.6-.1l1.7,1a.5.5,0,0,1,.2.6.5.5,0,0,1-.4.2Zm38.5-1.2a.5.5,0,0,1,.2-.6l1.7-1c.2-.1.5-.1.6.1s.1.5-.1.6l-1.8,1h-.2A.5.5,0,0,1,153,312.7Zm-42-.8-1.8-1c-.2-.2-.3-.4-.2-.6a.5.5,0,0,1,.6-.2l1.8,1.1c.2.1.2.3.1.5s-.2.2-.3.2Zm45.6-1.3c-.1-.2-.1-.4.1-.5l1.8-1.1c.2-.1.4,0,.6.2s0,.4-.2.6l-1.8,1h-.2C156.8,310.8,156.6,310.8,156.6,310.6Zm-49.2-.8-1.8-1c-.2-.1-.2-.4-.1-.6s.3-.2.5-.1l1.8,1a.5.5,0,0,1,.2.6.5.5,0,0,1-.4.2Zm52.7-1.2a.5.5,0,0,1,.2-.6l1.7-1c.2-.1.5-.1.6.1s.1.5-.1.6l-1.8,1h-.2Zm-56.3-.8-1.7-1.1a.4.4,0,0,1-.2-.5.5.5,0,0,1,.6-.2l1.8,1.1c.2.1.2.3.1.5s-.2.2-.3.2Zm59.9-1.3c-.1-.2-.1-.4.1-.5l1.8-1.1a.5.5,0,0,1,.6.2.4.4,0,0,1-.2.5l-1.8,1.1H164C163.9,306.7,163.7,306.7,163.7,306.5Zm-63.4-.8-.6-.3-1.2-.8a.4.4,0,0,1,0-.6.3.3,0,0,1,.5-.1l1.1.8.6.3a.5.5,0,0,1,.2.6l-.4.2Zm66.9-1.2a.5.5,0,0,1,.2-.6,8.7,8.7,0,0,0,1.4-1.2c.1-.2.4-.3.5-.1s.3.4.1.5a4.6,4.6,0,0,1-1.6,1.5h-.2ZM97,303a4.4,4.4,0,0,1-.7-2.1.5.5,0,0,1,.4-.5c.3,0,.4.2.5.4a3.4,3.4,0,0,0,.5,1.7.4.4,0,0,1-.1.6h-.2Zm72.3-2a2.7,2.7,0,0,0-.6-1.7c-.1-.2-.1-.5.1-.6s.5-.1.6.1a4.4,4.4,0,0,1,.7,2.2.4.4,0,0,1-.4.4h0A.4.4,0,0,1,169.3,301Zm-72.2-1.7a.5.5,0,0,1-.1-.6,5,5,0,0,1,1.7-1.5c.1-.1.4,0,.5.2s.1.4-.1.5a4.4,4.4,0,0,0-1.4,1.3h-.6Zm70.3-1.4a4.1,4.1,0,0,0-1.1-.7l-.6-.4c-.2-.1-.3-.3-.1-.5a.4.4,0,0,1,.5-.2l.6.3,1.2.8a.5.5,0,0,1,.1.6.5.5,0,0,1-.4.2Zm-67.1-1.1c-.1-.2-.1-.5.1-.6l1.8-1a.4.4,0,0,1,.6.1.5.5,0,0,1-.2.6l-1.8,1h-.2Zm63.6-1-1.7-1a.5.5,0,0,1-.2-.6.4.4,0,0,1,.6-.1l1.7,1c.2.1.3.4.2.5s-.2.3-.4.3Zm-60.1-1.1a.5.5,0,0,1,.2-.6l1.8-1a.4.4,0,0,1,.5.2c.1.2.1.4-.1.5l-1.8,1.1h-.2Zm56.6-1-1.8-1a.4.4,0,0,1-.2-.5c.2-.2.4-.3.6-.2l1.8,1a.4.4,0,0,1,.1.6l-.3.2C160.5,293.8,160.4,293.8,160.4,293.7Zm-53-1.1c-.1-.2-.1-.4.1-.5l1.8-1a.4.4,0,0,1,.6.1.5.5,0,0,1-.2.6l-1.7,1h-.2C107.6,292.9,107.5,292.8,107.4,292.6Zm49.4-.9-1.8-1c-.2-.1-.2-.4-.1-.6a.4.4,0,0,1,.6-.1l1.7,1a.4.4,0,0,1,.2.5c-.1.2-.2.3-.4.3Zm-45.9-1.1a.5.5,0,0,1,.2-.6l1.8-1a.4.4,0,0,1,.5.2c.2.2.1.4-.1.5l-1.8,1h-.2Zm42.4-1-1.8-1a.4.4,0,0,1-.2-.5c.2-.2.4-.3.6-.2l1.8,1c.2.1.2.4.1.6s-.2.2-.3.2Zm-38.8-1.1a.4.4,0,0,1,.2-.5l1.7-1a.4.4,0,0,1,.6.1.5.5,0,0,1-.2.6l-1.7,1h-.2C114.7,288.7,114.6,288.7,114.5,288.5Zm35.2-.9-1.8-1c-.2-.1-.2-.4-.1-.6a.4.4,0,0,1,.6-.1l1.7,1a.4.4,0,0,1,.2.5c-.1.2-.2.2-.4.2Zm-31.6-1.1a.4.4,0,0,1,.1-.6l1.8-1a.4.4,0,0,1,.5.2c.2.1.1.4-.1.5l-1.8,1h-.2C118.3,286.7,118.1,286.6,118.1,286.5Zm28.1-1-1.8-1a.5.5,0,0,1-.2-.6.6.6,0,0,1,.6-.1l1.8,1c.2.1.2.4.1.6l-.3.2C146.3,285.6,146.2,285.6,146.2,285.5Zm-24.6-1.1a.4.4,0,0,1,.2-.5l1.7-1.1a.5.5,0,0,1,.6.2.6.6,0,0,1-.1.6l-1.8,1H122C121.8,284.6,121.7,284.6,121.6,284.4Zm21-.9-1.8-1a.5.5,0,0,1-.1-.6.4.4,0,0,1,.5-.2l1.8,1.1a.4.4,0,0,1,.2.5c-.1.2-.2.2-.4.2Zm-17.4-1.1a.4.4,0,0,1,.1-.6l1.8-1h0a.4.4,0,0,1,.5.2c.2.2.1.4-.1.5l-1.8,1c0,.1-.1.1-.2.1S125.2,282.5,125.2,282.4Zm13.9-.9-1.9-.7a.3.3,0,0,1-.3-.5.4.4,0,0,1,.5-.2,6.8,6.8,0,0,1,2,.7.4.4,0,0,1,.2.5c-.1.2-.2.3-.4.3Zm-10.3-1a.4.4,0,0,1,.3-.5l2-.5a.5.5,0,0,1,.5.4.5.5,0,0,1-.4.5l-1.9.4h-.1C129,280.8,128.8,280.7,128.8,280.5Zm6.4-.1h-2a.4.4,0,0,1-.4-.4.5.5,0,0,1,.5-.5l2.1.2a.5.5,0,0,1,.3.5c0,.2-.2.3-.4.3Z"/><path class="cls-55" d="M185.7,352.5l-2.1-.2c-.2-.1-.4-.3-.3-.5a.3.3,0,0,1,.5-.3h1.9a.5.5,0,0,1,.5.4c-.1.3-.2.5-.5.5Zm1.7-.5c-.1-.2.1-.4.3-.5a6.5,6.5,0,0,0,2-.4.5.5,0,0,1,.5.3.4.4,0,0,1-.3.5l-2.1.5h0A.4.4,0,0,1,187.4,352Zm-5.8-.2a6.8,6.8,0,0,1-2-.7.4.4,0,0,1,.3-.7,10.6,10.6,0,0,0,1.9.6.6.6,0,0,1,.3.6c-.1.1-.2.3-.4.3Zm9.7-.8a.5.5,0,0,1,.2-.6l1.8-1c.2-.2.4-.1.6.1a.5.5,0,0,1-.2.6l-1.8,1-.2-.3.2.3h-.2Zm-13.6-.9-1.7-1a.4.4,0,0,1-.2-.5.5.5,0,0,1,.6-.2l1.8,1c.2.1.2.4.1.6l-.4.2Zm17.2-1.2a.5.5,0,0,1,.2-.6l1.7-1a.5.5,0,0,1,.6.2c.1.2.1.4-.1.5l-1.8,1h-.2A.5.5,0,0,1,194.9,348.9Zm-20.7-.8-1.8-1a.4.4,0,0,1-.1-.6c.1-.2.3-.3.5-.1l1.8,1a.4.4,0,0,1,.2.5.4.4,0,0,1-.4.2Zm24.3-1.3c-.1-.2-.1-.4.1-.5l1.8-1.1c.2-.1.4,0,.6.2a.5.5,0,0,1-.2.6l-1.8,1h-.2C198.7,347,198.5,347,198.5,346.8Zm-27.9-.8-1.7-1a.5.5,0,0,1-.2-.6.6.6,0,0,1,.6-.1l1.7,1a.5.5,0,0,1,.2.6.5.5,0,0,1-.4.2Zm31.4-1.2a.5.5,0,0,1,.2-.6l1.8-1a.4.4,0,0,1,.5.1c.1.2.1.5-.1.6l-1.8,1h-.2A.5.5,0,0,1,202,344.8Zm-34.9-.8-1.8-1c-.2-.2-.3-.4-.1-.6a.4.4,0,0,1,.5-.2l1.8,1.1c.2.1.3.3.1.5s-.2.2-.3.2Zm38.5-1.3c-.1-.2-.1-.4.1-.5l1.8-1.1a.5.5,0,0,1,.6.2c.1.2,0,.4-.2.6l-1.8,1h-.2C205.8,342.9,205.7,342.9,205.6,342.7Zm-42.1-.8-1.8-1a.6.6,0,0,1-.1-.6c.1-.2.4-.2.6-.1l1.7,1a.5.5,0,0,1,.2.6.5.5,0,0,1-.4.2Zm45.6-1.2a.5.5,0,0,1,.2-.6l1.8-1c.2-.1.4-.1.5.1s.1.5-.1.6l-1.8,1h-.2Zm-49.1-.8-1.8-1c-.2-.2-.3-.4-.2-.6s.4-.3.6-.2l1.8,1.1c.2.1.3.3.1.5s-.2.2-.3.2Zm52.7-1.3c-.1-.2-.1-.4.1-.5l1.8-1.1a.5.5,0,0,1,.6.2c.1.2,0,.4-.2.6l-1.7,1H213C212.9,338.8,212.8,338.8,212.7,338.6Zm-56.3-.8-1.8-1c-.2-.1-.2-.4-.1-.6s.4-.2.6-.1l1.7,1a.5.5,0,0,1,.2.6.5.5,0,0,1-.4.2Zm59.8-1.2a.5.5,0,0,1,.2-.6l1.8-1c.2-.1.4-.1.5.1a.4.4,0,0,1-.1.6l-1.8,1h-.2Zm-63.3-.8-.6-.3-1.2-.9a.3.3,0,0,1-.1-.5c.2-.2.4-.3.6-.1a4.1,4.1,0,0,0,1.1.7l.6.4c.2.1.2.3.1.5s-.2.2-.3.2Zm66.9-1.3c-.1-.2-.1-.4.1-.5a4.4,4.4,0,0,0,1.4-1.3.4.4,0,1,1,.7.5,4.6,4.6,0,0,1-1.6,1.5h-.2C220,334.7,219.9,334.7,219.8,334.5Zm-70.2-1.4a3.8,3.8,0,0,1-.7-2.2.4.4,0,0,1,.8,0,2.9,2.9,0,0,0,.6,1.7.5.5,0,0,1-.1.6h-.6Zm72.3-2.1a7,7,0,0,0-.6-1.7c-.2-.1-.1-.4.1-.5s.4-.1.6.1a4.4,4.4,0,0,1,.7,2.1.4.4,0,0,1-.4.4h0C222,331.4,221.9,331.3,221.9,331Zm-72.2-1.7a.4.4,0,0,1-.1-.6,5.6,5.6,0,0,1,1.6-1.4c.2-.1.5-.1.6.1a.6.6,0,0,1-.1.6,4.2,4.2,0,0,0-1.4,1.2l-.4.2ZM220,328l-1.1-.8-.6-.3a.5.5,0,0,1-.2-.6c.1-.2.4-.2.6-.1l.6.3,1.2.8a.5.5,0,0,1,0,.6c0,.1-.2.1-.3.1Zm-67.1-1.2c-.2-.2-.1-.4.1-.6l1.8-1a.4.4,0,0,1,.5.2c.2.2.1.4-.1.5l-1.8,1.1h-.2Zm63.6-.9-1.8-1.1c-.2-.1-.2-.3-.1-.5a.4.4,0,0,1,.5-.2l1.8,1c.2.2.3.4.2.6l-.4.2Zm-60.1-1.1a.5.5,0,0,1,.2-.6l1.7-1c.2-.1.5-.1.6.1a.6.6,0,0,1-.1.6l-1.8,1h-.2A.5.5,0,0,1,156.4,324.8Zm56.5-1-1.7-1a.5.5,0,0,1-.2-.6.4.4,0,0,1,.6-.1l1.8,1c.2.1.2.4.1.6l-.3.2ZM160,322.7c-.2-.2-.1-.4.1-.6l1.8-1c.2-.1.4,0,.6.2a.4.4,0,0,1-.2.5l-1.8,1.1h-.2C160.2,322.9,160,322.8,160,322.7Zm49.4-.9-1.8-1.1c-.2-.1-.3-.3-.1-.5a.4.4,0,0,1,.5-.2l1.8,1c.2.2.3.4.2.6l-.4.2Zm-45.9-1.1a.5.5,0,0,1,.2-.6l1.7-1a.4.4,0,0,1,.6.1c.1.2.1.5-.1.6l-1.8,1h-.2A.5.5,0,0,1,163.5,320.7Zm42.3-1-1.7-1a.5.5,0,0,1-.2-.6.4.4,0,0,1,.6-.1l1.8,1c.2.1.2.4.1.6l-.4.2Zm-38.7-1.1c-.1-.2-.1-.5.1-.6l1.8-1a.5.5,0,0,1,.6.2.4.4,0,0,1-.2.5l-1.8,1.1h-.2Zm35.2-.9-1.8-1.1c-.2-.1-.3-.3-.1-.5a.4.4,0,0,1,.5-.2l1.8,1a.4.4,0,0,1,.1.6c0,.1-.2.2-.3.2Zm-31.7-1.2c-.1-.1,0-.4.2-.5l1.8-1c.1-.2.4-.1.5.1s.1.5-.1.6l-1.8,1H171C170.8,316.8,170.7,316.7,170.6,316.5Zm28.1-.9-1.7-1a.5.5,0,0,1-.2-.6.4.4,0,0,1,.6-.1l1.7,1c.2.1.3.4.2.5s-.2.3-.4.3Zm-24.5-1.1c-.1-.2-.1-.5.1-.6l1.8-1a.5.5,0,0,1,.6.2.4.4,0,0,1-.2.5l-1.8,1h-.2Zm21-1-1.8-1a.4.4,0,0,1-.2-.5c.2-.2.4-.3.6-.2l1.8,1a.4.4,0,0,1,.1.6c0,.1-.2.2-.3.2S195.2,313.6,195.2,313.5Zm-17.5-1.1a.4.4,0,0,1,.2-.5l1.8-1c.2-.2.4-.1.5.1s.1.5-.1.6l-1.8,1h-.2C177.9,312.7,177.8,312.6,177.7,312.4Zm13.9-.8-1.8-.7c-.3-.1-.4-.3-.3-.5a.4.4,0,0,1,.5-.3l2,.7a.5.5,0,0,1,.2.6.5.5,0,0,1-.4.2Zm-10.2-1.1a.4.4,0,0,1,.2-.5l2.1-.4c.2,0,.5.1.5.4a.4.4,0,0,1-.4.4l-1.9.4h-.1C181.6,310.8,181.4,310.7,181.4,310.5Zm6.4,0-2-.2a.4.4,0,1,1,0-.8l2.1.2a.4.4,0,0,1,.4.4c-.1.3-.2.4-.4.4Z"/><path class="cls-55" d="M342.3,322.4l-2.1-.2c-.2,0-.3-.2-.3-.4s.2-.4.5-.4l2,.2a.4.4,0,0,1,.4.4.5.5,0,0,1-.5.4Zm1.7-.5c0-.2.1-.4.3-.4l2-.4c.2-.1.4.1.5.3s-.1.4-.3.5l-2.1.4h0A.4.4,0,0,1,344,321.9Zm-5.8-.1-2-.7a.5.5,0,0,1-.2-.6.4.4,0,0,1,.5-.2l1.9.7c.2.1.4.3.3.5s-.2.3-.4.3Zm9.8-.9c-.2-.2-.1-.4.1-.6l1.8-1a.5.5,0,0,1,.6.2.4.4,0,0,1-.2.5l-1.8,1.1h-.2C348.2,321.1,348,321,348,320.9Zm-13.6-.8-1.8-1a.5.5,0,0,1-.2-.6.4.4,0,0,1,.6-.1l1.8,1c.2.1.2.4.1.6l-.3.2Zm17.1-1.3c-.1-.1,0-.4.2-.5l1.8-1c.2-.2.4-.1.5.1s.1.5-.1.6l-1.8,1h-.2C351.7,319.1,351.6,319,351.5,318.8Zm-20.7-.8-1.8-1c-.2-.1-.2-.3-.1-.5a.4.4,0,0,1,.5-.2l1.8,1a.5.5,0,0,1,.2.6l-.4.2Zm24.3-1.2c-.1-.2-.1-.5.1-.6l1.8-1a.5.5,0,0,1,.6.2.4.4,0,0,1-.2.5l-1.8,1c0,.1-.1.1-.2.1Zm-27.9-.8-1.7-1a.5.5,0,0,1-.2-.6.4.4,0,0,1,.6-.1l1.8,1c.2.1.2.3.1.5s-.2.3-.3.3Zm31.4-1.3a.4.4,0,0,1,.2-.5l1.8-1c.2-.2.4-.1.5.1s.1.5-.1.6l-1.8,1H359C358.8,315,358.7,314.9,358.6,314.7Zm-34.9-.8-1.8-1c-.2-.1-.3-.3-.1-.5a.4.4,0,0,1,.5-.2l1.8,1a.5.5,0,0,1,.2.6l-.4.2Zm38.5-1.2c-.1-.2-.1-.5.1-.6l1.8-1a.5.5,0,0,1,.6.2.4.4,0,0,1-.2.5l-1.7,1h-.3Zm-42.1-.8-1.7-1a.5.5,0,0,1-.2-.6.4.4,0,0,1,.6-.1l1.7,1a.4.4,0,0,1,.2.5c-.1.2-.2.2-.4.2Zm45.6-1.3a.4.4,0,0,1,.2-.5l1.8-1c.2-.2.4-.1.5.1a.4.4,0,0,1-.1.6l-1.8,1h-.2A.4.4,0,0,1,365.7,310.6Zm-49.1-.8-1.8-1c-.2-.1-.3-.4-.1-.5a.4.4,0,0,1,.5-.2l1.8,1a.4.4,0,0,1,.1.6c0,.1-.2.2-.3.2Zm52.7-1.2c-.1-.2-.1-.5.1-.6l1.8-1a.6.6,0,0,1,.6.1.5.5,0,0,1-.2.6l-1.7,1h-.2Zm-56.3-.8-1.8-1a.7.7,0,0,1-.1-.6.5.5,0,0,1,.6-.2l1.7,1.1a.4.4,0,0,1,.2.5c-.1.2-.2.2-.4.2Zm59.9-1.3c-.2-.2-.1-.4.1-.5l1.8-1.1a.4.4,0,0,1,.5.2c.2.2.1.4-.1.6l-1.8,1h-.2C373.1,306.7,372.9,306.7,372.9,306.5Zm-63.4-.8-.6-.3-1.2-.8c-.2-.1-.2-.4-.1-.6a.5.5,0,0,1,.6-.1l1.1.8.6.3a.4.4,0,0,1,.1.6l-.3.2C309.6,305.8,309.5,305.8,309.5,305.7Zm66.9-1.2a.6.6,0,0,1,.1-.6,4.2,4.2,0,0,0,1.4-1.2c.2-.2.4-.3.6-.1s.2.4.1.6a5.6,5.6,0,0,1-1.6,1.4h-.2ZM306.2,303a4.4,4.4,0,0,1-.7-2.1c0-.3.2-.4.4-.5a.5.5,0,0,1,.4.5,3.2,3.2,0,0,0,.6,1.7.3.3,0,0,1-.1.5h-.2A.5.5,0,0,1,306.2,303Zm72.3-2a5.8,5.8,0,0,0-.6-1.7.5.5,0,0,1,.1-.6.7.7,0,0,1,.6.1,4.7,4.7,0,0,1,.7,2.2.4.4,0,0,1-.4.4h0A.4.4,0,0,1,378.5,301Zm-72.2-1.7a.5.5,0,0,1-.1-.6,5.8,5.8,0,0,1,1.6-1.5.5.5,0,0,1,.6.2c.1.2.1.4-.1.5a4.4,4.4,0,0,0-1.4,1.3.5.5,0,0,1-.4.2Zm70.3-1.4-1.1-.7-.6-.4a.4.4,0,0,1-.2-.5.5.5,0,0,1,.6-.2l.6.4,1.2.8a.3.3,0,0,1,0,.5l-.3.2C376.7,298,376.6,298,376.6,297.9Zm-67.1-1.1a.4.4,0,0,1,.1-.6l1.8-1a.5.5,0,0,1,.6.1.5.5,0,0,1-.2.6l-1.8,1c0,.1-.1.1-.2.1Zm63.6-1-1.8-1c-.2-.1-.2-.4-.1-.6s.3-.2.5-.1l1.8,1a.5.5,0,0,1,.2.6.5.5,0,0,1-.4.2ZM313,294.7c-.1-.2,0-.4.2-.6l1.7-1a.5.5,0,0,1,.6.2c.1.2.1.4-.1.5l-1.8,1.1h-.2A.5.5,0,0,1,313,294.7Zm56.6-.9-1.8-1.1a.4.4,0,0,1-.2-.5.5.5,0,0,1,.6-.2l1.8,1a.5.5,0,0,1,.1.6l-.3.2Zm-53-1.1c-.1-.2-.1-.5.1-.6l1.8-1c.2-.1.5-.1.6.1a.5.5,0,0,1-.2.6l-1.8,1h-.2C316.8,292.9,316.6,292.8,316.6,292.7Zm49.4-1-1.8-1c-.2-.1-.2-.4-.1-.6s.3-.2.5-.1l1.8,1a.5.5,0,0,1,.2.6l-.4.2Zm-45.9-1.1c-.1-.2,0-.4.2-.6l1.8-1a.4.4,0,0,1,.5.2c.1.2.1.4-.1.5l-1.8,1.1h-.2Zm42.3-.9-1.7-1.1a.4.4,0,0,1-.2-.5.5.5,0,0,1,.6-.2l1.8,1a.5.5,0,0,1,.1.6l-.3.2Zm-38.7-1.1c-.1-.2-.1-.5.1-.6l1.8-1c.2-.1.5-.1.6.1a.5.5,0,0,1-.2.6l-1.8,1H324Zm35.2-1-1.8-1a.4.4,0,0,1-.1-.6c.1-.2.3-.2.5-.1l1.8,1a.5.5,0,0,1,.2.6l-.4.2Zm-31.7-1.1c-.1-.2,0-.4.2-.6l1.8-1a.4.4,0,0,1,.5.2c.1.2.1.4-.1.5l-1.8,1.1h-.2A.5.5,0,0,1,327.2,286.5Zm28.1-.9-1.7-1.1a.4.4,0,0,1-.2-.5.5.5,0,0,1,.6-.2l1.8,1a.5.5,0,0,1,.1.6.5.5,0,0,1-.4.2Zm-24.5-1.1c-.1-.2-.1-.5.1-.6l1.8-1a.4.4,0,0,1,.6.1.5.5,0,0,1-.2.6l-1.7,1h-.3Zm21-1-1.8-1a.4.4,0,0,1-.1-.6c.1-.2.3-.3.5-.1l1.8,1a.5.5,0,0,1,.2.6l-.4.2Zm-17.5-1.1c-.1-.2,0-.4.2-.6l1.8-1,.2.4-.2-.4a.4.4,0,0,1,.5.2c.1.2.1.4-.1.5l-1.8,1.1h-.2Zm13.9-.9-1.8-.6c-.3-.1-.4-.3-.3-.5a.3.3,0,0,1,.5-.3l2,.7a.4.4,0,0,1,.2.5c-.1.2-.2.3-.4.3Zm-10.2-1c-.1-.2,0-.5.2-.5l2.1-.4a.4.4,0,0,1,.5.3c0,.3-.1.5-.4.5l-1.9.4h-.1C338.2,280.8,338,280.7,338,280.5Zm6.4,0-2-.2a.4.4,0,0,1-.4-.4c0-.3.2-.5.4-.4h2.1a.5.5,0,0,1,.4.5c-.1.2-.2.4-.4.4Z"/><path class="cls-55" d="M290.9,352.7l-2.1-.2c-.2,0-.3-.2-.3-.5a.3.3,0,0,1,.5-.3h2a.5.5,0,1,1-.1.9Zm1.7-.5a.5.5,0,0,1,.3-.5,12,12,0,0,0,2-.3.4.4,0,0,1,.5.2.5.5,0,0,1-.3.6l-2.1.4h0A.4.4,0,0,1,292.6,352.2Zm-5.8-.1-2-.8c-.2,0-.3-.3-.2-.5a.4.4,0,0,1,.5-.2l1.9.7a.4.4,0,0,1,.3.5c-.1.2-.2.3-.4.3Zm9.8-.9a.4.4,0,0,1,.1-.6l1.8-1c.2-.1.5-.1.6.1a.5.5,0,0,1-.2.6l-1.8,1h-.2C296.8,351.4,296.6,351.3,296.6,351.2Zm-13.6-.8-1.8-1.1a.4.4,0,0,1-.2-.5.5.5,0,0,1,.6-.2l1.8,1a.5.5,0,0,1,.1.6l-.3.2Zm17.1-1.3c-.1-.2,0-.4.2-.6l1.8-1a.4.4,0,0,1,.5.2c.1.2.1.4-.1.5l-1.8,1.1h-.2Zm-20.7-.8-1.8-1c-.2-.1-.2-.4-.1-.6s.3-.3.5-.1l1.8,1a.5.5,0,0,1,.2.6l-.4.2Zm24.3-1.2c-.1-.2-.1-.5.1-.6l1.8-1c.2-.1.5-.1.6.1a.5.5,0,0,1-.2.6l-1.8,1H304Zm-27.9-.8-1.7-1.1a.4.4,0,0,1-.2-.5.5.5,0,0,1,.6-.2l1.8,1a.5.5,0,0,1,.1.6l-.3.2Zm31.4-1.3c-.1-.2,0-.4.2-.6l1.8-1a.4.4,0,0,1,.5.2c.1.2.1.4-.1.5l-1.8,1.1h-.2Zm-34.9-.8-1.8-1a.4.4,0,0,1-.1-.6c.1-.2.3-.3.5-.1l1.8,1a.5.5,0,0,1,.2.6l-.4.2Zm38.5-1.2c-.1-.2-.1-.5.1-.6l1.8-1a.4.4,0,0,1,.6.1.5.5,0,0,1-.2.6l-1.7,1h-.3Zm-42.1-.8-1.7-1.1a.4.4,0,0,1-.2-.5.5.5,0,0,1,.6-.2l1.8,1a.6.6,0,0,1,.1.6.5.5,0,0,1-.4.2Zm45.6-1.3a.5.5,0,0,1,.2-.6l1.8-1a.4.4,0,0,1,.5.2c.2.2.1.4-.1.5l-1.8,1.1h-.2Zm-49.1-.8-1.8-1a.4.4,0,0,1-.1-.6c.1-.2.3-.3.5-.1l1.8,1c.2.1.3.4.1.5a.3.3,0,0,1-.3.3Zm52.7-1.3c-.1-.1,0-.4.1-.5l1.8-1a.4.4,0,0,1,.6.1.5.5,0,0,1-.2.6l-1.7,1h-.2C318.1,339.1,318,339,317.9,338.8Zm-56.3-.8-1.7-1a.4.4,0,0,1-.2-.5.5.5,0,0,1,.6-.2l1.7,1a.5.5,0,0,1,.2.6.5.5,0,0,1-.4.2Zm59.9-1.2a.4.4,0,0,1,.1-.6l1.8-1a.4.4,0,0,1,.5.2c.2.2.1.4-.1.5l-1.8,1c0,.1-.1.1-.2.1Zm-63.4-.8-.6-.3-1.2-.8a.4.4,0,0,1,.5-.7l1.1.8.6.3c.2.1.3.3.1.5a.3.3,0,0,1-.3.3Zm66.9-1.2a.6.6,0,0,1,.1-.6,4.4,4.4,0,0,0,1.4-1.3.4.4,0,1,1,.7.5,4.6,4.6,0,0,1-1.6,1.5h-.2A.5.5,0,0,1,325,334.8Zm-70.2-1.5a4.4,4.4,0,0,1-.7-2.2.4.4,0,0,1,.8,0,2.9,2.9,0,0,0,.6,1.7c.1.2.1.5-.1.6h-.2A.5.5,0,0,1,254.8,333.3Zm72.3-2a4.9,4.9,0,0,0-.6-1.7c-.1-.2-.1-.5.1-.6a.5.5,0,0,1,.6.1,4.4,4.4,0,0,1,.7,2.1.5.5,0,0,1-.4.5h0A.4.4,0,0,1,327.1,331.3Zm-72.2-1.8a.3.3,0,0,1-.1-.5,4.6,4.6,0,0,1,1.6-1.5c.2-.1.5-.1.6.1s.1.5-.1.6a5.8,5.8,0,0,0-1.4,1.2c-.1.2-.2.2-.4.2Zm70.3-1.3-1.1-.8-.6-.3a.5.5,0,0,1-.2-.6.5.5,0,0,1,.6-.1l.6.3,1.2.8a.4.4,0,0,1,0,.6l-.3.2ZM258.1,327c-.2-.2-.1-.4.1-.5l1.8-1.1c.2-.1.4,0,.6.2a.4.4,0,0,1-.2.5l-1.8,1.1h-.2C258.3,327.2,258.1,327.2,258.1,327Zm63.6-.9-1.8-1.1c-.2-.1-.2-.3-.1-.5s.4-.3.5-.2l1.8,1.1a.4.4,0,0,1,.2.5c-.1.2-.2.2-.4.2ZM261.6,325a.5.5,0,0,1,.2-.6l1.7-1c.2-.1.5-.1.6.1s.1.5-.1.6l-1.8,1H262Zm56.6-1-1.8-1a.5.5,0,0,1-.2-.6c.1-.2.4-.2.6-.1l1.8,1c.2.1.2.4.1.6l-.3.2C318.3,324.1,318.2,324.1,318.2,324Zm-53-1.1c-.1-.2-.1-.4.1-.5l1.8-1.1a.5.5,0,0,1,.6.2.4.4,0,0,1-.2.5l-1.8,1.1h-.2C265.4,323.1,265.2,323.1,265.2,322.9Zm49.4-.9-1.8-1.1c-.2-.1-.2-.3-.1-.5a.4.4,0,0,1,.5-.2l1.8,1.1a.4.4,0,0,1,.2.5c-.1.2-.2.2-.4.2Zm-45.9-1.1a.5.5,0,0,1,.2-.6l1.8-1c.2-.1.4-.1.5.1s.1.5-.1.6l-1.8,1h-.2A.5.5,0,0,1,268.7,320.9Zm42.3-1-1.7-1a.5.5,0,0,1-.2-.6c.1-.2.4-.2.6-.1l1.8,1c.2.1.2.4.1.6l-.3.2Zm-38.7-1.1c-.1-.2-.1-.4.1-.5l1.8-1.1a.5.5,0,0,1,.6.2.4.4,0,0,1-.2.5l-1.8,1.1h-.2Zm35.2-.9-1.8-1.1c-.2-.1-.2-.3-.1-.5a.4.4,0,0,1,.5-.2l1.8,1.1a.4.4,0,0,1,.2.5l-.4.2Zm-31.7-1.1a.5.5,0,0,1,.2-.6l1.8-1c.2-.1.4-.1.5.1s.1.5-.1.6l-1.8,1h-.2Zm28.1-1-1.7-1a.5.5,0,0,1-.2-.6c.1-.2.4-.2.6-.1l1.8,1c.2.1.2.4.1.6a.5.5,0,0,1-.4.2Zm-24.5-1.1a.5.5,0,0,1,.1-.6l1.8-1a.5.5,0,0,1,.6.2.4.4,0,0,1-.2.5l-1.7,1.1h-.3Zm21-.9-1.8-1.1c-.2-.1-.3-.3-.1-.5a.4.4,0,0,1,.5-.2l1.8,1c.2.2.3.4.2.6l-.4.2Zm-17.5-1.1a.5.5,0,0,1,.2-.6l1.8-1,.2.3-.2-.3c.2-.1.4-.1.5.1s.1.5-.1.6l-1.8,1h-.2Zm13.9-.9a9.6,9.6,0,0,0-1.8-.7.3.3,0,0,1-.3-.5c0-.2.3-.3.5-.3l2,.7a.5.5,0,0,1,.2.6l-.4.2Zm-10.2-1a.4.4,0,0,1,.3-.6l2-.4c.2,0,.5.2.5.4a.4.4,0,0,1-.4.4l-1.9.4a.1.1,0,0,0-.1.1A.4.4,0,0,1,286.6,310.8Zm6.4-.1-2-.2a.4.4,0,0,1-.4-.4.4.4,0,0,1,.4-.4l2.1.2c.3,0,.4.2.4.5s-.2.3-.4.3Z"/><path class="cls-55" d="M97.9,214.1l-2.1-.2c-.3,0-.4-.3-.4-.5a.4.4,0,0,1,.5-.3h2a.5.5,0,0,1,.4.5.4.4,0,0,1-.4.4Zm1.6-.5a.5.5,0,0,1,.4-.5,10.8,10.8,0,0,0,1.9-.3c.2-.1.5,0,.5.2a.4.4,0,0,1-.3.6l-2,.4h-.1A.4.4,0,0,1,99.5,213.6Zm-5.8-.1-2-.8a.4.4,0,0,1-.2-.5.4.4,0,0,1,.6-.2l1.8.7a.3.3,0,0,1,.3.5.4.4,0,0,1-.4.3Zm9.8-.9c-.1-.2-.1-.5.1-.6l1.8-1a.4.4,0,0,1,.6.1.5.5,0,0,1-.2.6l-1.8,1c0,.1-.1.1-.2.1Zm-13.6-.8-1.8-1.1a.4.4,0,0,1-.2-.5c.2-.2.4-.3.6-.2l1.8,1c.2.2.3.4.1.6l-.3.2Zm17.1-1.3c-.1-.2,0-.4.2-.6l1.8-1a.4.4,0,0,1,.5.2c.2.2.1.4-.1.5l-1.8,1.1h-.2Zm-20.7-.8-1.8-1c-.2-.1-.2-.4-.1-.6a.4.4,0,0,1,.6-.1l1.7,1a.5.5,0,0,1,.2.6.5.5,0,0,1-.4.2Zm24.3-1.2a.6.6,0,0,1,.1-.6l1.8-1a.4.4,0,0,1,.6.1.5.5,0,0,1-.2.6l-1.7,1H111Zm-27.8-.8L81,206.6a.4.4,0,0,1-.2-.5.5.5,0,0,1,.6-.2l1.8,1c.2.1.2.4.1.6l-.3.2Zm31.4-1.3a.4.4,0,0,1,.1-.6l1.8-1a.4.4,0,0,1,.5.2c.2.2.1.4-.1.5l-1.8,1.1h-.2Zm-35-.8-1.8-1c-.2-.1-.2-.4-.1-.6s.3-.3.5-.1l1.8,1a.4.4,0,0,1,.2.5c-.1.2-.2.3-.4.3Zm38.5-1.3a.4.4,0,0,1,.2-.5l1.7-1a.4.4,0,0,1,.6.1.5.5,0,0,1-.2.6l-1.7,1h-.2C117.9,204.6,117.8,204.5,117.7,204.3Zm-42-.8-1.8-1a.4.4,0,0,1-.2-.5.5.5,0,0,1,.6-.2l1.8,1c.2.1.2.4.1.6l-.3.2Zm45.6-1.2a.4.4,0,0,1,.1-.6l1.8-1c.2-.1.4,0,.6.2a.4.4,0,0,1-.2.5l-1.8,1h-.2Zm-49.2-.8-1.8-1c-.2-.1-.2-.4-.1-.6s.3-.3.5-.1l1.8,1a.4.4,0,0,1,.2.5.5.5,0,0,1-.4.3Zm52.7-1.3a.4.4,0,0,1,.2-.5l1.7-1a.4.4,0,0,1,.6.1c.1.2.1.5-.1.6l-1.8,1h-.2C125,200.4,124.9,200.4,124.8,200.2Zm-56.3-.8-1.7-1c-.2-.1-.3-.4-.2-.5a.5.5,0,0,1,.6-.2l1.8,1c.2.1.2.4.1.6l-.3.2Zm59.9-1.2c-.1-.2-.1-.5.1-.6l1.8-1c.2-.1.4,0,.6.2s0,.4-.2.5l-1.8,1h-.2C128.6,198.4,128.4,198.3,128.4,198.2ZM65,197.4l-.6-.3-1.2-.9a.3.3,0,0,1-.1-.5.5.5,0,0,1,.6-.1l1.1.7.6.4a.4.4,0,0,1,.2.5.4.4,0,0,1-.4.2Zm66.9-1.3c-.1-.1,0-.4.2-.5a5.8,5.8,0,0,0,1.4-1.3c.1-.2.3-.2.5-.1s.3.4.1.6a4.6,4.6,0,0,1-1.6,1.5h-.2C132.1,196.3,132,196.3,131.9,196.1Zm-70.2-1.4a4.7,4.7,0,0,1-.7-2.2.4.4,0,0,1,.4-.4.4.4,0,0,1,.4.4,5.8,5.8,0,0,0,.6,1.7c.1.2.1.5-.1.6h-.6Zm72.3-2a2.7,2.7,0,0,0-.6-1.7c-.1-.2-.1-.5.1-.6s.5-.1.6.1a4.4,4.4,0,0,1,.7,2.1.5.5,0,0,1-.4.5h0A.4.4,0,0,1,134,192.7Zm-72.2-1.8a.3.3,0,0,1-.1-.5,5.7,5.7,0,0,1,1.6-1.5c.2-.1.5-.1.6.1s.1.5-.1.6a5.8,5.8,0,0,0-1.4,1.2l-.4.2Zm70.3-1.3-1.1-.8-.6-.3a.4.4,0,0,1-.1-.6c.1-.2.3-.2.5-.1l.6.3,1.2.8a.5.5,0,0,1,.1.6l-.4.2ZM65,188.4c-.1-.2-.1-.4.1-.5l1.8-1.1a.5.5,0,0,1,.6.2.4.4,0,0,1-.2.5l-1.8,1.1h-.2C65.2,188.6,65.1,188.6,65,188.4Zm63.6-.9-1.7-1.1a.4.4,0,0,1-.2-.5.5.5,0,0,1,.6-.2l1.7,1.1a.4.4,0,0,1,.2.5c-.1.2-.2.2-.4.2Zm-60.1-1.1a.5.5,0,0,1,.2-.6l1.8-1c.2-.1.4-.1.5.1s.1.5-.1.6l-1.8,1h-.2Zm56.6-1-1.8-1a.5.5,0,0,1-.2-.6.5.5,0,0,1,.6-.1l1.8,1a.4.4,0,0,1,.1.6l-.3.2Zm-53-1.1a.5.5,0,0,1,.1-.6l1.8-1a.5.5,0,0,1,.6.2.4.4,0,0,1-.2.5l-1.7,1.1h-.3Zm49.4-.9-1.8-1.1c-.2-.1-.2-.3-.1-.5a.5.5,0,0,1,.6-.2l1.7,1c.2.2.3.4.2.6a.5.5,0,0,1-.4.2Zm-45.9-1.1a.5.5,0,0,1,.2-.6l1.8-1c.2-.1.4-.1.5.1a.4.4,0,0,1-.1.6l-1.8,1H76Zm42.4-1-1.8-1a.5.5,0,0,1-.2-.6.5.5,0,0,1,.6-.1l1.8,1c.2.1.2.4.1.6s-.2.2-.3.2Zm-38.8-1.1a.7.7,0,0,1,.1-.6l1.8-1a.5.5,0,0,1,.6.2.4.4,0,0,1-.2.5l-1.7,1.1h-.2Zm35.2-.9-1.8-1.1c-.2-.1-.2-.3-.1-.5s.4-.3.5-.2l1.8,1c.2.2.3.4.2.6a.5.5,0,0,1-.4.2Zm-31.6-1.1a.4.4,0,0,1,.1-.6l1.8-1c.2-.1.4-.1.5.1a.4.4,0,0,1-.1.6l-1.8,1h-.2C83,178.4,82.8,178.3,82.8,178.2Zm28.1-1-1.8-1a.5.5,0,0,1-.2-.6.4.4,0,0,1,.6-.1l1.8,1c.2.1.2.4.1.6l-.3.2Zm-24.6-1.1c-.1-.2,0-.4.2-.6l1.7-1a.5.5,0,0,1,.6.2.4.4,0,0,1-.2.5l-1.7,1.1h-.2A.5.5,0,0,1,86.3,176.1Zm21-.9-1.8-1.1c-.2-.1-.2-.3-.1-.5a.4.4,0,0,1,.5-.2l1.8,1c.2.2.3.4.2.6l-.4.2Zm-17.4-1.1a.4.4,0,0,1,.1-.6l1.8-1,.2.3-.2-.3c.2-.2.4-.1.5.1a.4.4,0,0,1-.1.6l-1.8,1h-.2Zm13.9-.9-1.9-.7a.4.4,0,0,1-.3-.5.5.5,0,0,1,.5-.3l2,.7a.5.5,0,0,1,.2.6l-.4.2Zm-10.3-1.1c-.1-.2,0-.4.3-.5l2-.4a.5.5,0,0,1,.5.4.4.4,0,0,1-.4.4l-1.9.4h-.1C93.7,172.4,93.5,172.3,93.5,172.1Zm6.4,0-2-.2a.4.4,0,0,1-.4-.4.4.4,0,0,1,.4-.4l2.1.2c.3,0,.4.2.4.5s-.2.3-.4.3Z"/><path class="cls-55" d="M46.5,244.3a7.5,7.5,0,0,1-2.1-.2.4.4,0,0,1-.4-.4c0-.2.3-.4.5-.4l2,.2a.4.4,0,0,1,0,.8Zm1.6-.4c0-.3.1-.5.4-.5l1.9-.4a.4.4,0,0,1,.5.3c.1.2,0,.4-.3.5l-2,.4h-.1C48.3,244.2,48.1,244.1,48.1,243.9Zm-5.8-.2-2-.7a.4.4,0,0,1-.2-.5.4.4,0,0,1,.6-.3,9.6,9.6,0,0,0,1.8.7c.2.1.4.3.3.5s-.2.3-.4.3Zm9.8-.9a.5.5,0,0,1,.1-.6l1.8-1a.5.5,0,0,1,.6.2.4.4,0,0,1-.2.5L52.6,243h-.2C52.3,243,52.2,243,52.1,242.8ZM38.5,242l-1.8-1a.5.5,0,0,1-.2-.6.5.5,0,0,1,.6-.1l1.8,1a.4.4,0,0,1,.1.6l-.3.2Zm17.1-1.2a.5.5,0,0,1,.2-.6l1.8-1c.2-.1.4-.1.5.1a.4.4,0,0,1-.1.6l-1.8,1H56ZM34.9,240l-1.8-1.1c-.2-.1-.2-.3-.1-.5a.5.5,0,0,1,.6-.2l1.7,1c.2.2.3.4.2.6l-.4.2Zm24.3-1.3c-.1-.2,0-.4.2-.6l1.7-1a.5.5,0,0,1,.6.2.4.4,0,0,1-.2.5l-1.7,1.1h-.2A.5.5,0,0,1,59.2,238.7Zm-27.8-.8-1.8-1a.5.5,0,0,1-.2-.6.4.4,0,0,1,.6-.1l1.8,1c.2.1.2.4.1.6l-.3.2Zm31.4-1.2a.4.4,0,0,1,.1-.6l1.8-1c.2-.2.4-.1.5.1a.4.4,0,0,1-.1.6l-1.8,1h-.2C63,236.9,62.8,236.8,62.8,236.7Zm-35-.8L26,234.8c-.2-.1-.2-.3-.1-.5a.4.4,0,0,1,.5-.2l1.8,1c.2.2.3.4.2.6l-.4.2Zm38.5-1.3c-.1-.2,0-.4.2-.6l1.7-1a.5.5,0,0,1,.6.2.4.4,0,0,1-.1.5l-1.8,1.1h-.2A.5.5,0,0,1,66.3,234.6Zm-42-.8-1.8-1a.5.5,0,0,1-.2-.6.4.4,0,0,1,.6-.1l1.8,1c.2.1.2.4.1.6l-.3.2Zm45.6-1.2a.4.4,0,0,1,.1-.6l1.8-1c.2-.2.4-.1.6.1a.5.5,0,0,1-.2.6l-1.8,1h-.2Zm-49.2-.8-1.8-1.1c-.2-.1-.2-.3-.1-.5a.4.4,0,0,1,.5-.2l1.8,1a.5.5,0,0,1,.2.6.5.5,0,0,1-.4.2Zm52.7-1.3a.5.5,0,0,1,.2-.6l1.7-1a.5.5,0,0,1,.6.2c.1.2.1.4-.1.5L74,230.7h-.2Zm-56.3-.8-1.7-1a.5.5,0,0,1-.2-.6.4.4,0,0,1,.6-.1l1.8,1a.3.3,0,0,1,.1.5l-.3.3ZM77,228.4a.3.3,0,0,1,.1-.5l1.8-1c.2-.2.4-.1.6.1a.5.5,0,0,1-.2.6l-1.8,1h-.2A.3.3,0,0,1,77,228.4Zm-63.4-.8-.6-.3-1.2-.8c-.2-.1-.2-.4-.1-.6s.5-.2.6,0l1.1.7.6.3a.5.5,0,0,1,.2.6l-.4.2Zm66.9-1.2c-.1-.2,0-.4.2-.6a5.5,5.5,0,0,0,1.4-1.2c.1-.2.3-.2.5-.1a.4.4,0,0,1,.1.6,5.6,5.6,0,0,1-1.6,1.4h-.2Zm-70.2-1.5a4.4,4.4,0,0,1-.7-2.1.4.4,0,0,1,.4-.4c.2-.1.4.1.4.4a7,7,0,0,0,.6,1.7c.1.2.1.4-.1.5h-.2Zm72.3-2a3.2,3.2,0,0,0-.6-1.7.5.5,0,0,1,.1-.6.5.5,0,0,1,.6.2,4.4,4.4,0,0,1,.7,2.1.4.4,0,0,1-.4.4h0A.4.4,0,0,1,82.6,222.9Zm-72.2-1.7c-.2-.1-.2-.4-.1-.6a8.6,8.6,0,0,1,1.7-1.5c.1-.1.4,0,.5.2a.5.5,0,0,1-.1.6,3.3,3.3,0,0,0-1.4,1.2.5.5,0,0,1-.4.2Zm70.3-1.4-1.1-.7-.6-.3c-.2-.2-.3-.4-.1-.6a.4.4,0,0,1,.5-.2l.6.4,1.2.8c.2.1.2.4.1.6h-.6Zm-67.1-1.1c-.1-.2-.1-.5.1-.6l1.8-1c.2-.1.5-.1.6.1a.5.5,0,0,1-.2.6l-1.8,1h-.2Zm63.6-1-1.7-1a.5.5,0,0,1-.2-.6c.1-.2.4-.2.6-.1l1.7,1a.5.5,0,0,1,.2.6l-.4.2Zm-60.1-1.1a.4.4,0,0,1,.2-.5l1.8-1.1a.4.4,0,0,1,.5.2c.1.2.1.4-.1.5l-1.8,1.1h-.2A.4.4,0,0,1,17.1,216.6Zm56.6-.9-1.8-1c-.2-.2-.3-.4-.2-.6s.4-.3.6-.2l1.8,1.1c.2.1.3.3.1.5s-.2.2-.3.2Zm-53-1.1c-.1-.2-.1-.5.1-.6l1.8-1c.2-.1.5-.1.6.1a.5.5,0,0,1-.2.6l-1.7,1H21Zm49.4-1-1.8-1c-.2-.1-.2-.4-.1-.6s.4-.2.6-.1l1.7,1a.5.5,0,0,1,.2.6l-.4.2Zm-45.9-1.1a.4.4,0,0,1,.2-.5l1.8-1.1a.4.4,0,0,1,.5.2c.2.2.1.4-.1.5l-1.8,1.1h-.2A.4.4,0,0,1,24.2,212.5Zm42.4-.9-1.8-1.1a.4.4,0,0,1-.2-.5c.2-.2.4-.3.6-.2l1.8,1.1c.2.1.2.3.1.5s-.2.2-.3.2Zm-38.8-1.1a.5.5,0,0,1,.2-.6l1.7-1c.2-.1.5-.1.6.1a.5.5,0,0,1-.2.6l-1.7,1h-.2Zm35.2-1-1.8-1c-.2-.1-.2-.4-.1-.6s.4-.2.6-.1l1.7,1a.5.5,0,0,1,.2.6l-.4.2Zm-31.6-1.1c-.2-.2-.1-.4.1-.5l1.8-1.1a.4.4,0,0,1,.5.2c.2.2.1.4-.1.5l-1.8,1.1h-.2Zm28.1-.9-1.8-1.1a.4.4,0,0,1-.2-.5.5.5,0,0,1,.6-.2l1.8,1.1c.2.1.2.3.1.5l-.3.2Zm-24.6-1.1a.5.5,0,0,1,.2-.6l1.7-1c.2-.1.5-.1.6.1a.6.6,0,0,1-.1.6l-1.8,1h-.2Zm21-1-1.8-1c-.2-.1-.2-.4-.1-.6s.3-.2.5-.1l1.8,1a.5.5,0,0,1,.2.6l-.4.2Zm-17.4-1.1c-.2-.2-.1-.4.1-.6l1.8-1,.2.4-.2-.4a.4.4,0,0,1,.5.2c.2.2.1.4-.1.5L39,204.5h-.2Zm13.9-.9-1.9-.6c-.2-.1-.4-.3-.3-.5s.3-.4.5-.3l2,.7a.4.4,0,0,1,.2.5c-.1.2-.2.3-.4.3Zm-10.3-1c-.1-.2,0-.4.3-.5l2-.4a.3.3,0,0,1,.5.3c0,.3-.1.5-.4.5l-1.9.4h-.1C42.3,202.7,42.1,202.6,42.1,202.4Zm6.4,0-2-.2a.4.4,0,0,1-.4-.4.5.5,0,0,1,.5-.4h2a.5.5,0,0,1,.4.5.4.4,0,0,1-.4.4Z"/><path class="cls-55" d="M51.2,214.6l2.3,1.3-11.8,6.7a9.2,9.2,0,0,1-4.8,1.4,8.4,8.4,0,0,1-4.5-1.1c-1.4-.8-2.2-1.6-2.2-2.6s.8-1.8,2.4-2.7h.1l2.2,1.3c-1,.6-1.6,1.2-1.7,1.7s.2,1,.9,1.4a3.6,3.6,0,0,0,2.4.4,7.1,7.1,0,0,0,3-1Z"/><path class="cls-55" d="M51.9,229.2q1.2-.7,1.2-1.5a2.5,2.5,0,0,0-1-2.1,5.6,5.6,0,0,1-1.7-3.2c-.1-.9.5-1.7,1.7-2.4a8.7,8.7,0,0,1,4.6-1.1,10.3,10.3,0,0,1,4.9,1.4c1.5.9,2.3,1.9,2.2,3a3.2,3.2,0,0,1-2.1,2.7h-.1l-2.2-1.3c1-.6,1.5-1.2,1.6-1.8s-.3-1.2-1.2-1.7a4.2,4.2,0,0,0-2.7-.7,4.4,4.4,0,0,0-2.6.7c-.7.4-1.1.9-1,1.4a4.1,4.1,0,0,0,1.1,2.2,4.7,4.7,0,0,1,1.6,3.1,3.5,3.5,0,0,1-2,2.5,7.8,7.8,0,0,1-4.6,1,10.3,10.3,0,0,1-4.8-1.4c-1.5-.9-2.4-1.9-2.6-3s.5-2.1,2.1-3h.1l2.2,1.3c-1.2.7-1.7,1.3-1.6,2s.5,1.2,1.5,1.8a5.4,5.4,0,0,0,2.7.7A4.9,4.9,0,0,0,51.9,229.2Z"/><path class="cls-55" d="M91.6,190.8h0a7.5,7.5,0,0,1-4,1.2,8,8,0,0,1-4-1.1c-1.3-.7-1.9-1.6-1.8-2.5s.9-1.8,2.4-2.7l3.6-2.1a9.4,9.4,0,0,1,4.7-1.4,8,8,0,0,1,4.4,1c1.2.7,1.9,1.5,1.9,2.3s-.7,1.6-2,2.4h-.1l-1.7-1c.9-.6,1.4-1.1,1.5-1.6s-.2-.9-1-1.3a3.8,3.8,0,0,0-2.6-.5,8.2,8.2,0,0,0-3.2,1.1L86,186.7a4.2,4.2,0,0,0-1.9,1.9q-.3.9.9,1.5a3.2,3.2,0,0,0,2.3.6,5.4,5.4,0,0,0,2.6-.9Z"/><path class="cls-55" d="M100.8,192.7l3,1.7-1.5.9-3.1-1.7-4,2.3-1.8-1,4-2.4-3-1.7,1.5-.9,3.1,1.7,3.8-2.2,1.8,1Z"/><path class="cls-55" d="M109.9,197.9l3.1,1.8-1.6.9-3-1.8-4.1,2.4-1.7-1,4-2.4-3.1-1.7,1.6-.9,3,1.7,3.9-2.2,1.8,1Z"/><path class="cls-55" d="M182.2,331.9h0a10.4,10.4,0,0,1-5.1,1.5A10.3,10.3,0,0,1,172,332c-1.6-.9-2.3-2-2.2-3.2s1.1-2.3,3.1-3.4l4.5-2.7a13.8,13.8,0,0,1,6-1.8,10.9,10.9,0,0,1,5.5,1.3c1.6.9,2.4,1.9,2.4,2.9s-.9,2-2.5,3h-.1l-2.2-1.3c1.2-.7,1.8-1.4,1.9-2s-.3-1.1-1.3-1.7a5.8,5.8,0,0,0-3.3-.6,9.6,9.6,0,0,0-4,1.4l-4.6,2.7c-1.5.8-2.3,1.6-2.5,2.3s.1,1.5,1.1,2a4.3,4.3,0,0,0,2.9.7,7.4,7.4,0,0,0,3.4-1.1Z"/><path class="cls-55" d="M189.5,336.4l-2.2-1.2-5.4,2.2-1.6-.9,5.4-2.2-2.2-1.3,1.4-.9,2.5,1.5,4.8-2.1-2.4-1.3,1.5-.9,2.6,1.5,5.5-2.3,1.5.9-5.4,2.3,2.2,1.3,5.4-2.3,1.6.9-5.4,2.3,2,1.2-1.5.8-2.2-1.3-4.9,2,2.2,1.3-1.4.9-2.5-1.4-5.3,2.2-1.6-.9Zm-.5-1.9,2.2,1.2,4.8-2-2.2-1.3Z"/><path class="cls-55" d="M119.9,293.7l-5.2,3-1.9-1,13.2-7.6,4.3,2.5c1.3.7,1.9,1.5,1.8,2.3s-.6,1.6-1.8,2.3a7.6,7.6,0,0,1-3.9,1,7.7,7.7,0,0,1-4-1Zm1.4-.8,2.5,1.5a4.3,4.3,0,0,0,2.3.5,6.3,6.3,0,0,0,2.3-.8,2.7,2.7,0,0,0,1.4-1.4c.1-.5-.2-.9-.9-1.3l-2.5-1.5Z"/><path class="cls-55" d="M131.9,306.7l-1.9-1.1,5.8-3.3-5-3-5.8,3.4-1.9-1.1,13.2-7.6,1.8,1.1-5.9,3.4,5,2.9,6-3.4,1.8,1.1Z"/><path class="cls-55" d="M141.5,306.2l-5.2,3-1.9-1,13.2-7.6,4.4,2.5c1.2.7,1.8,1.4,1.8,2.3a3.4,3.4,0,0,1-1.9,2.3,8.7,8.7,0,0,1-3.9,1,7.9,7.9,0,0,1-4-1Zm1.4-.8,2.5,1.5a3.7,3.7,0,0,0,2.3.4,5.5,5.5,0,0,0,2.4-.7,2.5,2.5,0,0,0,1.3-1.4c.1-.5-.1-.9-.8-1.3l-2.5-1.5Z"/><path class="cls-55" d="M282.4,328.1h0a8.5,8.5,0,0,1-4.3,1.2,8,8,0,0,1-4.2-1.1c-1.3-.8-1.9-1.7-1.8-2.6s.9-2,2.5-2.9l3.8-2.2a11.6,11.6,0,0,1,5-1.5,7.6,7.6,0,0,1,4.5,1.1c1.4.7,2,1.5,2,2.4s-.7,1.7-2.1,2.5h0l-1.9-1.1c1-.5,1.6-1.1,1.7-1.6s-.3-.9-1.1-1.4a4.3,4.3,0,0,0-2.8-.5,8.2,8.2,0,0,0-3.4,1.2l-3.8,2.2c-1.2.7-1.9,1.3-2.1,1.9s.2,1.2,1,1.7a5.3,5.3,0,0,0,2.4.6,7.3,7.3,0,0,0,2.8-1Z"/><path class="cls-55" d="M290.1,333.3c.6-.3,1-.7,1-1.2s-.2-1-.8-1.7a5.3,5.3,0,0,1-1.5-2.7c0-.7.5-1.4,1.5-2a7.6,7.6,0,0,1,3.8-.9,8.9,8.9,0,0,1,4,1.2c1.3.7,1.9,1.5,1.9,2.4a2.7,2.7,0,0,1-1.7,2.3h-.1l-1.8-1.1a2.9,2.9,0,0,0,1.3-1.5c.1-.5-.3-1-1-1.4a4.6,4.6,0,0,0-2.3-.6,4.3,4.3,0,0,0-2.2.6,1.4,1.4,0,0,0-.8,1.2,2.8,2.8,0,0,0,1,1.8,3.6,3.6,0,0,1,1.2,2.6c0,.7-.5,1.4-1.6,2a6.2,6.2,0,0,1-3.8.9,9.3,9.3,0,0,1-4-1.2,3.8,3.8,0,0,1-2.2-2.5c-.2-.9.4-1.8,1.8-2.5h0l1.9,1c-1,.6-1.4,1.1-1.4,1.7a2.5,2.5,0,0,0,1.3,1.5,4.6,4.6,0,0,0,2.3.6A4.3,4.3,0,0,0,290.1,333.3Z"/><path class="cls-55" d="M300.4,339.3a2,2,0,0,0,1-1.3,2.8,2.8,0,0,0-.8-1.7,4.7,4.7,0,0,1-1.5-2.6q-.2-1.2,1.5-2.1a6.5,6.5,0,0,1,3.8-.8,8,8,0,0,1,4,1.1c1.3.7,1.9,1.5,1.9,2.4s-.6,1.7-1.8,2.4h0l-1.9-1.1a2.1,2.1,0,0,0,1.3-1.5c.1-.5-.2-1-1-1.4a4.3,4.3,0,0,0-2.2-.6,4,4,0,0,0-2.2.6c-.6.3-.9.7-.8,1.2a3,3,0,0,0,.9,1.8,4,4,0,0,1,1.3,2.6c0,.8-.6,1.4-1.6,2.1a6.9,6.9,0,0,1-3.8.8,7.5,7.5,0,0,1-4.1-1.2,3.9,3.9,0,0,1-2.1-2.4c-.2-1,.4-1.8,1.7-2.6h.1l1.8,1.1c-.9.5-1.3,1-1.3,1.6s.5,1,1.3,1.5a4.3,4.3,0,0,0,2.2.6A5.9,5.9,0,0,0,300.4,339.3Z"/><path class="cls-55" d="M329.6,292.5l-4.4,2.6-1.5-.9,10.2-5.9,3.2,1.9c1,.5,1.5,1.1,1.6,1.7s-.5,1.2-1.4,1.7a4.8,4.8,0,0,1-1.8.6,4.6,4.6,0,0,1-2-.1,1.1,1.1,0,0,1,.3,1.2,3.3,3.3,0,0,1-1.2,1.1l-.9.5-.8.5a.9.9,0,0,0-.3.6h-.2l-1.4-.9c0-.1.1-.3.4-.5l.9-.6.8-.5c.6-.4.9-.7,1-1.1s-.1-.6-.6-.9Zm1.1-.6,1.7,1a2.5,2.5,0,0,0,1.7.4,3.4,3.4,0,0,0,1.7-.5,1.9,1.9,0,0,0,1-1c.1-.3-.2-.7-.7-1l-1.8-1Z"/><path class="cls-55" d="M348.5,296.8l-7,4a6.9,6.9,0,0,1-3.4.9,5.9,5.9,0,0,1-3.2-.9c-1-.5-1.5-1.2-1.5-1.8s.5-1.3,1.5-1.9L342,293l1.4.8-7.1,4.1c-.7.4-1.1.8-1.1,1.2s.2.8.8,1.1a3.8,3.8,0,0,0,1.9.5,3.5,3.5,0,0,0,2.1-.7l7.1-4.1Z"/><path class="cls-55" d="M340.1,303.7l10.2-5.9,2.9,1.6c1,.6,1.5,1.2,1.6,1.8s-.3,1.1-1.3,1.6a2.8,2.8,0,0,1-1.6.5,4.1,4.1,0,0,1-1.9-.1,1.2,1.2,0,0,1,.5,1.3,2.6,2.6,0,0,1-1.2,1.1,5.2,5.2,0,0,1-3,.8,6,6,0,0,1-2.9-.8Zm6.2-1.9-3.7,2.1,1.9,1.1a4.2,4.2,0,0,0,1.6.4,4.3,4.3,0,0,0,1.8-.6c.5-.3.9-.6,1-1s-.1-.6-.6-.9Zm1-.6,1.6.9a2.9,2.9,0,0,0,1.6.4,3.7,3.7,0,0,0,1.6-.5c.5-.3.8-.6.8-1s-.2-.6-.8-.9l-1.4-.9Z"/><path class="cls-55" d="M355.8,306.7h0l7.1-1.7,1.6.9-9.6,2.1-3.7,2.1-1.4-.8,3.8-2.2,3.4-5.4,1.6.9Z"/></g><g class="cls-56"><path class="cls-57" d="M296.6,93.6a10,10,0,0,1-2.6-3.4,8.5,8.5,0,0,1-.8-3.5V84.5a3.4,3.4,0,0,0-.4-1.8,2.2,2.2,0,0,0-1.2-1.3V79.2c.6.3,1,.4,1.2.2s.4-.7.4-1.5V75.8a4.1,4.1,0,0,1,.8-2.7,2.7,2.7,0,0,1,2.6-.3l.5,1.9c-.5,0-.9.1-1.1.6a4.4,4.4,0,0,0-.3,1.9v2.1a4,4,0,0,1-.4,1.8,1.5,1.5,0,0,1-1.3.6,6.3,6.3,0,0,1,1.3,2,9.3,9.3,0,0,1,.4,2.2v2.2a8.5,8.5,0,0,0,.3,2.3,4.2,4.2,0,0,0,1.1,1.8Z"/><path class="cls-57" d="M343.8,117.2a.9.9,0,0,0,1.1-.6,4.4,4.4,0,0,0,.3-1.9v-2.1a2.6,2.6,0,0,1,.5-1.7,1.4,1.4,0,0,1,1.3-.6,6,6,0,0,1-1.3-2.1,5.9,5.9,0,0,1-.5-2.2v-2.2a8.5,8.5,0,0,0-.3-2.3,5.8,5.8,0,0,0-1.1-1.8l.5-1.3a9.7,9.7,0,0,1,2.6,3.3,8.4,8.4,0,0,1,.7,3.5v2.2a5.8,5.8,0,0,0,.4,1.9,4,4,0,0,0,1.3,1.3v2.1c-.6-.3-1-.4-1.3-.1a2.1,2.1,0,0,0-.4,1.4v2.1a4.1,4.1,0,0,1-.7,2.7,2.7,2.7,0,0,1-2.6.4Z"/></g><circle class="cls-58" cx="157.9" cy="67.9" r="14.7" transform="translate(22.2 173.4) rotate(-61.1)"/><circle class="cls-59" cx="147.5" cy="62" r="11.1" transform="translate(45.2 185) rotate(-73)"/><path class="cls-60" d="M143.2,64.4a8.3,8.3,0,0,0-7.9-14.7,8.3,8.3,0,0,0,7.9,14.7Z"/><g class="cls-61"><path class="cls-62" d="M234.7,330.9a25.6,25.6,0,0,1-12.4-3L91.2,252.2c-4.5-2.6-7.1-6.7-7.1-11.3s3.2-9.7,8.6-12.8l74.4-43a30.1,30.1,0,0,1,15-3.8,24.5,24.5,0,0,1,12.4,3l131.1,75.6c4.5,2.7,7.1,6.8,7.1,11.4s-3.1,9.7-8.6,12.8l-74.4,43A30.9,30.9,0,0,1,234.7,330.9Z"/><path class="cls-63" d="M167.4,185.7a30.6,30.6,0,0,1,21.1-3,28.6,28.6,0,0,1,6.2,2.4l130.5,75.4c4.5,2.6,6.9,6.7,6.6,11.2a15.5,15.5,0,0,1-.8,3.6c-1.1,3.2-4.3,6.6-8,8.7l-73.4,42.3a18.2,18.2,0,0,1-3.1,1.6,30.4,30.4,0,0,1-11.6,2.3,24.5,24.5,0,0,1-12.2-2.9L91.6,251.6c-4.5-2.6-6.9-6.7-6.6-11.1a12.3,12.3,0,0,1,.7-3.2c1-3.3,4.4-7,8.2-9.2Z"/><path class="cls-64" d="M167.7,186.2a30.3,30.3,0,0,1,15-3.6,29.9,29.9,0,0,1,6.1.9,29.1,29.1,0,0,1,6,2.5l130.1,75.1c4.5,2.6,6.6,6.7,6,11a15,15,0,0,1-.9,3.5c-1.1,2.8-4.9,6.4-8.2,8.3l-72.2,41.7-3.2,1.6a30.6,30.6,0,0,1-11.4,2.4,25.3,25.3,0,0,1-12-2.8L91.9,251.1c-4.5-2.6-6.6-6.7-6-11.1.2-1,.5-2,.8-3,1.1-3,5-6.8,8.4-8.8Z"/><path class="cls-65" d="M168.1,186.8a28.6,28.6,0,0,1,14.9-3.5,28.9,28.9,0,0,1,6,1,32.7,32.7,0,0,1,6,2.5l129.6,74.9c4.4,2.5,6.3,6.6,5.5,10.8a13.1,13.1,0,0,1-1.2,3.3c-1,2.5-5.3,6.3-8.2,8l-71.2,41.1-3.1,1.6a32,32,0,0,1-11.2,2.4,23.5,23.5,0,0,1-11.9-2.7L92.2,250.5c-4.4-2.6-6.3-6.7-5.4-10.9a16.6,16.6,0,0,1,1-2.9c1-2.6,5.4-6.7,8.5-8.5Z"/><path class="cls-66" d="M168.4,187.4a26.9,26.9,0,0,1,14.9-3.4,22.1,22.1,0,0,1,5.9,1.1,29.4,29.4,0,0,1,6,2.6l129.1,74.5c4.4,2.6,6,6.6,4.9,10.8a25.8,25.8,0,0,1-1.3,3.1c-1,2.1-5.8,6.1-8.4,7.6l-70.1,40.5-3,1.6a31.5,31.5,0,0,1-11.1,2.4,23,23,0,0,1-11.7-2.6l-131-75.7c-4.5-2.5-6.1-6.6-4.9-10.8.3-.9.8-1.7,1.2-2.7s5.9-6.5,8.6-8.1Z"/><path class="cls-67" d="M168.7,187.9a27.5,27.5,0,0,1,14.8-3.2,26.7,26.7,0,0,1,6,1.1,53.4,53.4,0,0,1,5.9,2.8l128.5,74.2c4.4,2.5,5.9,6.6,4.4,10.6a20,20,0,0,1-1.5,2.9c-.9,1.8-6.2,6-8.4,7.3l-69.1,39.9-3,1.6a29.5,29.5,0,0,1-10.8,2.5,23.2,23.2,0,0,1-11.5-2.5L92.9,249.4c-4.5-2.6-5.8-6.7-4.3-10.7.3-.9.9-1.7,1.3-2.6s6.5-6.4,8.8-7.7Z"/><path class="cls-68" d="M169.1,188.5a27.4,27.4,0,0,1,14.7-3.2,32.1,32.1,0,0,1,5.9,1.3,51.8,51.8,0,0,1,5.8,2.8l128.1,74c4.4,2.5,5.6,6.5,3.9,10.4a11.7,11.7,0,0,1-1.7,2.8c-.6,1.6-6.7,5.9-8.5,6.9l-68.1,39.3-2.9,1.6a28.9,28.9,0,0,1-10.6,2.5,21.6,21.6,0,0,1-11.4-2.4L93.2,248.8c-4.4-2.6-5.6-6.6-3.7-10.6a15.8,15.8,0,0,1,1.5-2.4c.5-1.7,7-6.3,8.9-7.4Z"/><path class="cls-69" d="M169.4,189.1a26.4,26.4,0,0,1,14.7-3.1,26.8,26.8,0,0,1,5.9,1.4c.8.3,5,2.5,5.7,2.9l127.6,73.6c4.3,2.5,5.4,6.5,3.3,10.3a11.5,11.5,0,0,1-1.9,2.6c-.4,1.3-7.1,5.8-8.6,6.6l-67,38.7-2.8,1.6a28.4,28.4,0,0,1-10.5,2.5,21.1,21.1,0,0,1-11.2-2.3L93.5,248.2c-4.4-2.5-5.3-6.6-3.1-10.4a11.9,11.9,0,0,1,1.6-2.3c.4-1.3,7.6-6.1,9.2-7Z"/><path class="cls-70" d="M169.7,189.7a24.8,24.8,0,0,1,14.7-3,25.9,25.9,0,0,1,5.8,1.5c.6.2,5.2,2.6,5.7,2.9L323,264.5c4.3,2.5,5.1,6.5,2.7,10.2a14.1,14.1,0,0,1-2,2.4c-.3,1-7.6,5.6-8.7,6.2l-66,38.1-2.8,1.5a27.1,27.1,0,0,1-10.2,2.7,20.7,20.7,0,0,1-11.1-2.3l-131-75.6c-4.5-2.6-5.2-6.7-2.6-10.4a16.8,16.8,0,0,1,1.8-2.1c.3-1,8.1-6,9.3-6.7Z"/><path class="cls-71" d="M170,190.2a24.8,24.8,0,0,1,14.7-2.8,19.9,19.9,0,0,1,5.7,1.6c.4.1,5.3,2.8,5.6,3l126.6,73.1c4.3,2.5,5,6.4,2.3,10a12.1,12.1,0,0,1-2.3,2.2c-.2.7-8,5.5-8.8,5.9l-64.9,37.5-2.7,1.5a26.1,26.1,0,0,1-10.1,2.7,20.5,20.5,0,0,1-10.8-2.1L94.2,247.1c-4.4-2.5-5-6.6-2-10.2a9.5,9.5,0,0,1,2-2c.2-.7,8.6-5.9,9.4-6.3Z"/><path class="cls-72" d="M170.4,190.8A24.4,24.4,0,0,1,185,188a31.6,31.6,0,0,1,5.7,1.7l5.5,3.1,126.1,72.8c4.3,2.5,4.8,6.5,1.7,9.9a17.1,17.1,0,0,1-2.4,2.1c-.1.3-8.6,5.3-8.9,5.5L248.9,320l-2.7,1.5a29.8,29.8,0,0,1-9.9,2.8,20.2,20.2,0,0,1-10.7-2.1L94.5,246.5c-4.4-2.5-4.8-6.6-1.4-10.1l2.1-1.8c.1-.3,9.2-5.7,9.6-5.9Z"/><path d="M225.9,321.6,94.9,246c-5.2-3-4.6-8.2,1.4-11.7l74.4-42.9c6-3.5,15-3.9,20.2-.9L322,266.2c5.1,3,4.5,8.2-1.5,11.7l-74.4,42.9C240.2,324.3,231.1,324.6,225.9,321.6Z"/></g><path class="cls-73" d="M225.9,321.5l-131-75.7c-2.3-1.3-3.5-3.1-3.5-4.9v-6.5c0-2.3,1.7,1.6,4.9-.2l74.4-43c6-3.4,15-3.8,20.2-.8L322,266.1c1.7,1,2.9-3.3,3.4-1.9s0,6.4.1,6.8c0,2.4-1.7,4.8-5,6.7l-74.4,43C240.2,324.1,231.1,324.5,225.9,321.5Z"/><path class="cls-74" d="M225.9,315.1l-131-75.6c-5.2-3-4.6-8.2,1.4-11.7l74.4-42.9c6-3.5,15-3.9,20.2-.9L322,259.7c5.1,3,4.5,8.2-1.5,11.7l-74.4,42.9C240.2,317.8,231.1,318.1,225.9,315.1Z"/><path class="cls-75" d="M325.4,274.5c0,2.3-1.6,4.7-4.9,6.6l-74.4,43c-5.9,3.4-15,3.8-20.2.8l-131-75.7c-2.5-1.4-3.7-3.4-3.5-5.4v6.8c0,1.9,1.2,3.7,3.5,5l131,75.7c5.2,3,14.3,2.6,20.2-.9l74.4-42.9c3.3-1.9,5-4.4,5-6.7C325.5,280.4,325.5,276.1,325.4,274.5Z"/><path class="cls-76" d="M234.7,314.5a15.4,15.4,0,0,1-7.5-1.6l-131-75.7c-.9-.5-2.2-1.5-2.2-2.8s1.3-3,3.6-4.3l74.4-43a20.7,20.7,0,0,1,10.1-2.5,15.1,15.1,0,0,1,7.5,1.7L320.7,262a3.5,3.5,0,0,1,2.1,2.8c0,1.4-1.3,3-3.6,4.3L244.8,312A20.4,20.4,0,0,1,234.7,314.5Z"/><path class="cls-77" d="M320.5,270.3l-74.4,42.9c-5.9,3.5-15,3.9-20.2.9l-131-75.7c-2.2-1.3-3.3-2.9-3.5-4.6-.3,2.1.9,4.2,3.5,5.7l131,75.6c5.2,3,14.3,2.7,20.2-.8l74.4-42.9c3.5-2.1,5.2-4.7,4.9-7.1C325.2,266.4,323.5,268.6,320.5,270.3Z"/><ellipse class="cls-78" cx="239.8" cy="319.9" rx="42.7" ry="28.3" transform="translate(-103.6 115.1) rotate(-22.3)"/><ellipse class="cls-79" cx="189" cy="218.1" rx="32.7" ry="19.3" transform="translate(-60.7 73.3) rotate(-19)"/><path class="cls-80" d="M194.3,284.2l-40.4-23.3c-1.9-1.1-1.7-2.9.5-4.2l20.5-11.9c2.1-1.2,5.3-1.4,7.2-.3l40.4,23.3c1.9,1.1,1.7,2.9-.5,4.2l-20.5,11.9A8.3,8.3,0,0,1,194.3,284.2Z"/><path class="cls-81" d="M319.9,258.7l-126.3-73c-4.9-2.8-8.9-10.4-8.9-16.9v-99c0-6.6,4-9.6,8.9-6.7L319.9,136c4.9,2.8,8.8,10.4,8.8,16.9V252C328.7,258.5,324.8,261.5,319.9,258.7Z"/><path class="cls-82" d="M323.4,257.8a5.6,5.6,0,0,1-2.5-.8L194.6,184c-4.3-2.4-7.9-9.4-7.9-15.2v-99c0-2.7.9-5.8,3.4-5.8a4.5,4.5,0,0,1,2.5.8l126.3,72.9c4.3,2.5,7.9,9.4,7.9,15.2V252C326.8,254.7,325.9,257.8,323.4,257.8Z"/><path class="cls-83" d="M321,253.6,196.1,181.4c-4-2.5-6.4-7.5-6.4-12.6V69.3a1.6,1.6,0,0,1,2.4-1.4l.3.2,125,72.2c4.7,2.7,6.4,7.5,6.4,12.6v99.4a1.7,1.7,0,0,1-2.6,1.4Z"/><path class="cls-84" d="M317.4,140.3l-125-72.2-.3-.2a1.6,1.6,0,0,0-2.4,1.4v99.5c0,5.1,2.4,10.1,6.4,12.6L321,253.6h.2a1.7,1.7,0,0,0,2.6-1.4V152.9C323.8,147.8,322.1,143,317.4,140.3Zm5.4,112a.8.8,0,0,1-.7.7h-.4L196.6,180.6c-3.6-2.3-5.9-6.9-5.9-11.8V69.3a.6.6,0,0,1,.6-.6h.3l125.3,72.4c4.9,2.8,5.9,7.9,5.9,11.7Z"/><path class="cls-85" d="M322.4,134.7l-126.3-73a5.9,5.9,0,0,0-5.2-.7c-.2,0-2.6,1.3-2.8,1.4h0c1.5-.7,3.4-.5,5.5.7L319.9,136c4.9,2.8,8.8,10.4,8.8,16.9V252c0,4.1-1.5,6.8-3.9,7.5a1.3,1.3,0,0,0,.8-.2l2.9-1.7c1.7-1.2,2.8-3.6,2.8-6.9V151.6C331.3,145.1,327.3,137.5,322.4,134.7Z"/><path class="cls-86" d="M320.3,135.8,194,62.8c-2-1.1-3.8-1.3-5.3-.6a6.6,6.6,0,0,1,4.3,1l126.3,72.9c4.8,2.8,8.8,10.4,8.8,16.9v99.1c0,3.9-1.4,6.5-3.5,7.4,2.7-.4,4.6-3.3,4.6-7.7V152.7C329.2,146.2,325.2,138.6,320.3,135.8Z"/><ellipse class="cls-87" cx="327.3" cy="143.3" rx="6.3" ry="9.5" transform="translate(-29.9 135.2) rotate(-22.3)"/><circle class="cls-88" cx="188" cy="80.2" r="51.4"/><path class="cls-89" d="M240,266.7l-64.2-37c-2.1-1.2-1.9-3.4.6-4.8l21.3-12.5c2.5-1.5,6.2-1.6,8.3-.4l64.6,36.8c2.1,1.2,1.8,3.4-.6,4.8l-21.7,12.7C245.8,267.8,242.1,267.9,240,266.7Z"/><path class="cls-90" d="M213,218.4l-.8-2.3h-.1a2.2,2.2,0,0,0-1.2-1.5l-5.9-3.4a6.4,6.4,0,0,0-6,0l-5.9,3.4a2.3,2.3,0,0,0-1.2,1.6l-.8,2.1a2.1,2.1,0,0,0,1,3l6.6,3.8a7.2,7.2,0,0,0,6.7,0l6.5-3.8C213.3,220.5,213.5,219.6,213,218.4Z"/><path class="cls-91" d="M193.5,218l5.6,3.3a6.8,6.8,0,0,0,5.9,0l5.6-3.3c1.6-.9,1.6-2.4,0-3.3l-5.7-3.3a6.6,6.6,0,0,0-5.8,0l-5.7,3.2C191.8,215.6,191.8,217.1,193.5,218Z"/><path class="cls-92" d="M227.3,226.3l-.8-2.3h0a2.7,2.7,0,0,0-1.2-1.5l-5.9-3.4a7,7,0,0,0-6,0l-5.9,3.4a2.7,2.7,0,0,0-1.2,1.7l-.8,2.1a2,2,0,0,0,1,2.9l6.6,3.8a7.2,7.2,0,0,0,6.7,0l6.5-3.7A2,2,0,0,0,227.3,226.3Z"/><path class="cls-93" d="M207.8,225.9l5.7,3.3a6,6,0,0,0,5.8,0L225,226c1.6-1,1.6-2.5,0-3.4l-5.7-3.3a6.6,6.6,0,0,0-5.8,0l-5.7,3.3C206.2,223.5,206.2,225,207.8,225.9Z"/><path class="cls-94" d="M241.7,234.2l-.8-2.3h0a2.2,2.2,0,0,0-1.2-1.4l-5.9-3.4a6.6,6.6,0,0,0-6.1,0l-5.8,3.3a3.4,3.4,0,0,0-1.3,1.7l-.8,2.1a2.2,2.2,0,0,0,1.1,3l6.5,3.8a8.1,8.1,0,0,0,6.8,0l6.5-3.8A2,2,0,0,0,241.7,234.2Z"/><path class="cls-95" d="M222.2,233.9l5.7,3.3a6.6,6.6,0,0,0,5.8,0l5.7-3.3c1.6-.9,1.6-2.4,0-3.4l-5.7-3.2a6.2,6.2,0,0,0-5.9,0l-5.6,3.2C220.6,231.4,220.6,232.9,222.2,233.9Z"/><path class="cls-96" d="M256.1,242.2l-.8-2.3h0a2.2,2.2,0,0,0-1.2-1.5l-5.9-3.4a6.6,6.6,0,0,0-6.1,0l-5.9,3.4A2.7,2.7,0,0,0,235,240l-.8,2.1a2.1,2.1,0,0,0,1.1,3l6.5,3.8a7.2,7.2,0,0,0,6.7,0l6.6-3.8A2,2,0,0,0,256.1,242.2Z"/><path class="cls-97" d="M236.6,241.8l5.7,3.3a6.6,6.6,0,0,0,5.8,0l5.6-3.3c1.6-.9,1.6-2.4,0-3.3l-5.7-3.3a6.6,6.6,0,0,0-5.8,0l-5.6,3.2C235,239.4,235,240.9,236.6,241.8Z"/><path class="cls-98" d="M200.3,215.3h-.1l2.8,3.5-1.9,1.1-3.6-5.4,1.5-.8,9.4,2-1.9,1.1Z"/><path class="cls-98" d="M218.4,226.3a6,6,0,0,1-2.8.8,4.5,4.5,0,0,1-2.6-.5c-.7-.5-1.1-1-1-1.5s.6-1.1,1.5-1.7l1.7-1a8.1,8.1,0,0,1,2.9-.9,5.8,5.8,0,0,1,2.6.6,1.9,1.9,0,0,1,1,1.5c-.1.6-.6,1.1-1.6,1.7Zm.7-1.9a1.8,1.8,0,0,0,1-.9.6.6,0,0,0-.4-.8,3.2,3.2,0,0,0-1.4-.3l-1.6.6-2.1,1.2c-.6.4-1,.7-1.1,1a.8.8,0,0,0,.5.8,1.9,1.9,0,0,0,1.3.2,3.2,3.2,0,0,0,1.7-.6Z"/><path class="cls-98" d="M228.1,234.8l-1.3-.7,6.3-3.6-1.6-.9,1-.5,3,1.4Z"/><path class="cls-98" d="M244.2,237.6l1.8-1,3.9,5.5-1.5.9-9.6-2.2,1.9-1.1,6.4,1.7h.1Z"/><path class="cls-99" d="M240.7,250.2l-.8-2.3h0a2.7,2.7,0,0,0-1.2-1.5l-47.2-27.3a7.2,7.2,0,0,0-6.1,0l-5.8,3.4a2.7,2.7,0,0,0-1.2,1.7l-.8,2.1a2,2,0,0,0,1,2.9l47.8,27.7a7.4,7.4,0,0,0,6.8,0l6.5-3.7C241.1,252.4,241.2,251.5,240.7,250.2Z"/><path class="cls-100" d="M179.9,225.9l47,27.2a6,6,0,0,0,5.8,0l5.6-3.2c1.7-1,1.6-2.5,0-3.4l-46.9-27.2a6.6,6.6,0,0,0-5.8,0l-5.7,3.3C178.3,223.5,178.3,225,179.9,225.9Z"/><path class="cls-101" d="M270.5,250l-.8-2.3h-.1a2.2,2.2,0,0,0-1.2-1.4l-5.9-3.5a7,7,0,0,0-6,0l-21,12a2.7,2.7,0,0,0-1.2,1.7l-.8,2.1a2,2,0,0,0,1,2.9l6.6,3.8a7.2,7.2,0,0,0,6.7,0L269.4,253A2.1,2.1,0,0,0,270.5,250Z"/><path class="cls-102" d="M235.8,258.2l5.7,3.3a6.2,6.2,0,0,0,5.9,0l20.7-11.8c1.6-.9,1.6-2.4,0-3.4l-5.7-3.3a6.6,6.6,0,0,0-5.8,0l-20.8,11.9C234.2,255.8,234.2,257.3,235.8,258.2Z"/><path class="cls-98" d="M249.2,250.7,248,250l-.8.5,1.3.8-.3.2-1.8-1.1,2.6-1.5,1.8,1-.4.2-1.3-.7-.7.4,1.1.7Z"/><path class="cls-98" d="M250.8,250.8h.3l.4.2c.2.1.3.2.3.4l-.4.4-1.3.7-.4-.3,1.2-.7c.2,0,.2-.1.2-.2l-.2-.2h-.6l-1.4.8-.4-.3,1.9-1.1Z"/><path class="cls-98" d="M253.6,251.8l-.5.3.3.2h-.3l-.3-.2-1.1.7h.1l-.3.2h-.3l-.3-.3c0-.2.1-.3.3-.4l1.1-.6-.3-.2.4-.2.3.2.4-.3Z"/><path class="cls-98" d="M252.7,254.1a.5.5,0,0,1-.4-.5c0-.2.2-.4.4-.6h.1a1.7,1.7,0,0,1,1-.3l.9.2c.2.2.4.3.3.5a.5.5,0,0,1-.4.5l-.3.2-1.2-.8h0c-.1,0-.2.1-.2.3s0,.2.2.2l.3.2h.4l-.2.2h-.4Zm1.6-1h-.4l-.4.2h-.1l.8.4h.1l.2-.2Z"/><path class="cls-98" d="M256.4,254.4h-.7l-1.4.8-.4-.2,1.9-1.2.4.3h.7Z"/><polygon class="cls-103" points="308.8 215.7 273.9 195.5 273.9 177.1 308.8 197.2 308.8 215.7"/><polygon class="cls-104" points="225.6 167.9 190.7 147.8 190.7 129.3 225.6 149.4 225.6 167.9"/><path class="cls-105" d="M270.8,133.7l-28.7-16.5c-2.5-1.5-4.5-5.3-4.5-8.5h0c0-3.3,2-4.8,4.5-3.4l28.7,16.6c2.4,1.4,4.4,5.2,4.4,8.5h0C275.2,133.7,273.2,135.2,270.8,133.7Z"/><path class="cls-106" d="M269.3,216.7l-28.7-16.6c-2.5-1.4-4.5-5.2-4.5-8.5h0c0-3.3,2-4.8,4.5-3.3l28.7,16.5c2.4,1.5,4.4,5.3,4.4,8.5h0C273.7,216.6,271.7,218.1,269.3,216.7Z"/><polygon class="cls-107" points="293.3 182.7 293.3 173 272.9 161.3 272.4 162.1 292.4 173.5 292.4 182.1 290.4 181 292.7 186.8 294.9 183.6 293.3 182.7"/><polygon class="cls-107" points="255.9 136.7 258.1 133.5 256.4 132.5 256.4 127 255.5 126.8 255.5 131.9 253.6 130.9 255.9 136.7"/><polygon class="cls-107" points="220.3 145.4 222.5 142.2 220.9 141.3 220.9 132.4 237.4 141.9 237.8 141.1 220 130.8 220 140.7 218 139.6 220.3 145.4"/><polygon class="cls-107" points="290.1 208.7 218.4 167.4 218.4 164.2 217.5 163.9 217.5 167.9 255.5 189.8 255.5 191.9 253.6 190.8 255.9 196.6 258.1 193.4 256.4 192.4 256.4 190.4 290.3 209.9 291 210.3 291 205.9 290.1 205.6 290.1 208.7"/><polygon class="cls-108" points="255.8 166.3 238.1 141.6 255.8 137.2 273.4 161.9 255.8 166.3"/><polygon class="cls-109" points="273.9 177.1 273.9 177.8 308.3 197.6 308.3 215.4 308.8 215.7 308.8 197.2 273.9 177.1"/><polygon class="cls-110" points="190.7 129.3 190.7 130 225.1 149.9 225.1 167.7 225.6 167.9 225.6 149.4 190.7 129.3"/><path class="cls-111" d="M270.8,121.9l-28.7-16.6c-1.5-.8-2.8-.6-3.6.4a2.7,2.7,0,0,1,3.1.1l28.7,16.6c2.5,1.4,4.5,5.2,4.5,8.5a4.2,4.2,0,0,1-.9,2.9,4.1,4.1,0,0,0,1.3-3.4C275.2,127.1,273.2,123.3,270.8,121.9Z"/><path class="cls-112" d="M269.3,204.8l-28.7-16.5c-1.5-.9-2.8-.7-3.6.3a2.7,2.7,0,0,1,3.1.1l28.7,16.6c2.5,1.4,4.5,5.2,4.5,8.5a4.5,4.5,0,0,1-.9,3,4.4,4.4,0,0,0,1.3-3.5C273.7,210.1,271.7,206.3,269.3,204.8Z"/><polygon class="cls-113" points="255.3 137.7 272.7 162.1 273.4 161.9 255.8 137.2 238.1 141.6 238.4 141.9 255.3 137.7"/><g class="cls-6"><polygon class="cls-114" points="209.1 145.3 213.1 147.5 213.1 146.4 209.1 144.1 209.1 145.3"/><polygon class="cls-114" points="210.8 154.9 206.8 152.6 206.8 153.7 210.8 156 210.8 154.9"/><polygon class="cls-114" points="210.5 148.6 210.5 147.4 206.1 144.9 206.1 146.1 210.5 148.6"/><polygon class="cls-114" points="205.9 149.6 205.9 150.7 208.2 152 208.2 150.9 205.9 149.6"/><polygon class="cls-114" points="202.5 151.3 202.5 150.1 198.9 148.1 198.9 149.3 202.5 151.3"/><polygon class="cls-114" points="212.4 153.3 209.3 151.5 209.3 152.7 212.4 154.5 212.4 153.3"/><polygon class="cls-114" points="208 148.4 208 149.6 209.8 150.6 209.8 149.4 208 148.4"/><polygon class="cls-114" points="214.2 147 214.2 148.2 215.2 148.8 215.2 147.6 214.2 147"/><polygon class="cls-114" points="206.8 148.9 206.8 147.7 203 145.6 203 146.7 206.8 148.9"/><polygon class="cls-114" points="211.7 148.1 211.7 149.3 217.3 152.5 217.3 151.3 211.7 148.1"/><polygon class="cls-114" points="204.8 150.1 204.8 148.9 200 146.3 200 147.4 204.8 150.1"/><polygon class="cls-114" points="201.2 139.6 201.2 140.7 204.9 142.8 204.9 141.7 201.2 139.6"/><polygon class="cls-114" points="207.9 143.4 206 142.3 206 143.5 207.9 144.6 207.9 143.4"/><polygon class="cls-114" points="205.7 151.9 203.7 150.8 203.7 152 205.7 153.1 205.7 151.9"/><polygon class="cls-114" points="216.2 156.7 221.3 159.6 221.3 158.5 216.2 155.5 216.2 156.7"/><polygon class="cls-114" points="197.7 147.4 195.9 146.4 195.9 147.6 197.7 148.6 197.7 147.4"/><polygon class="cls-114" points="192.3 134.6 192.3 135.8 200.2 140.3 200.2 139.2 192.3 134.6"/><polygon class="cls-114" points="217.4 154.9 219.3 156 219.3 154.9 217.4 153.8 217.4 154.9"/><polygon class="cls-114" points="218.4 153.1 223.8 156.3 223.8 155.1 218.4 152 218.4 153.1"/><polygon class="cls-114" points="211 151.3 216.2 154.3 216.2 153.1 211 150.1 211 151.3"/><polygon class="cls-114" points="216.4 148.3 216.4 149.5 220.6 151.9 220.6 150.7 216.4 148.3"/><polygon class="cls-114" points="198.9 145.6 195.9 144 195.9 145.1 198.9 146.8 198.9 145.6"/><polygon class="cls-114" points="215.1 154.9 213.6 154 213.6 155.2 215.1 156 215.1 154.9"/><polygon class="cls-114" points="201.9 144.9 195.9 141.5 195.9 142.7 201.9 146.1 201.9 144.9"/><polygon class="cls-114" points="205 144.3 195.9 139.1 195.9 140.3 205 145.4 205 144.3"/></g><path class="cls-115" d="M338.1,228l3.1,1.8v-7.1l-3.1-1.8Zm4.9,2.8,3,1.8V219.7l-3-1.8Zm4.8-16v18.8l3.1,1.8V216.6Z"/><path class="cls-115" d="M180,78.6v-.9l1.4-.2a17.2,17.2,0,0,0-.7-2.1l-1.6-.5a9.5,9.5,0,0,0-1-1.7l.4-1.7L177,69.9l-.9,1.1-.7-.4-.7-.4-.9-2.1a4.7,4.7,0,0,0-1.6-.2l.4,2.1a2.1,2.1,0,0,0-1,.6L170,69.2a3.5,3.5,0,0,0-.6,1.4l1.4,1.8a2.2,2.2,0,0,0-.1.8,2.8,2.8,0,0,0,.1.9h-1.4a9,9,0,0,0,.6,2.2l1.6.5a9.5,9.5,0,0,0,1,1.7l-.4,1.6a12.9,12.9,0,0,0,1.6,1.7l.9-1.2a1.8,1.8,0,0,0,.7.5l.7.4.9,2.1a3.8,3.8,0,0,0,1.5.1l-.4-2a2.1,2.1,0,0,0,1-.6l1.6,1.4a6.1,6.1,0,0,0,.7-1.4L180,79.4Zm-4.6-.6a3.9,3.9,0,0,1-1.9-3.2c0-1.2.8-1.6,1.9-1.1a4.3,4.3,0,0,1,1.8,3.3C177.2,78.1,176.4,78.6,175.4,78Z"/><g class="cls-56"><path class="cls-57" d="M156.9,162.5l-.2-.2c0-.1-.1-.2-.1-.3v-1.1c0-.2.1-.2.1-.3h.3l3.1-.6-3.1-4.2-.3-.4c0-.1-.1-.2-.1-.4v-1.1a.3.3,0,0,1,.1-.2h.2l.2.3,4.4,6c.2.2.3.3.3.5s.1.2.1.4v.3c0,.2,0,.3-.1.3s-.1.2-.3.2l-4.4.9Z"/><path class="cls-57" d="M154.9,163.4l-.9-.5-.2-.3-.2-.3-4.4-14.7v-.2h.1c0-.1.1-.1.2,0l.8.5.3.2c0,.1.1.2.1.3l4.4,14.7v.2a.3.3,0,0,1-.1.2Z"/><path class="cls-57" d="M147.5,157l-.3-.3-4.4-5.9-.3-.5c0-.1-.1-.3-.1-.4v-.4c0-.1.1-.2.1-.3h.3l4.4-.9h.3v.2a.4.4,0,0,1,.1.3v1.1a.4.4,0,0,1-.1.3h-.2l-3.1.6,3.1,4.2.2.4a.4.4,0,0,1,.1.3v1.2h-.2Z"/></g><polygon class="cls-115" points="130 150 130 138.7 136.1 147.9 130 150 130 150"/><polygon class="cls-116" points="121.6 145.3 121.6 133.9 127.7 143.1 121.6 145.3 121.6 145.3"/><polygon class="cls-117" points="113.2 140.5 113.2 129.1 119.4 138.3 113.2 140.5 113.2 140.5"/><polygon class="cls-118" points="104.9 135.7 104.9 124.3 111 133.5 104.9 135.7 104.9 135.7"/><polygon class="cls-119" points="96.5 130.9 96.5 119.5 102.7 128.8 96.5 130.9 96.5 130.9"/><polygon class="cls-115" points="306.1 82.2 306.1 93.6 300 84.4 306.1 82.2 306.1 82.2"/><polygon class="cls-116" points="314.5 87 314.5 98.4 308.3 89.2 314.5 87 314.5 87"/><polygon class="cls-117" points="322.8 91.8 322.8 103.2 316.7 94 322.8 91.8 322.8 91.8"/><polygon class="cls-118" points="331.2 96.6 331.2 108 325 98.7 331.2 96.6 331.2 96.6"/><polygon class="cls-119" points="339.6 101.4 339.6 112.8 333.4 103.5 339.6 101.4 339.6 101.4"/><g class="cls-56"><polygon class="cls-116" points="69.3 269.3 73.4 271.7 75.4 270.5 71.3 268.1 69.3 269.3"/><polygon class="cls-115" points="72.4 267.5 76.5 269.9 78.7 268.6 74.6 266.2 72.4 267.5"/><polygon class="cls-120" points="63.1 272.8 67.2 275.2 68.8 274.3 64.7 271.9 63.1 272.8"/><polygon class="cls-119" points="61 274.1 65.1 276.5 65.9 276.1 61.8 273.7 61 274.1"/><polygon class="cls-121" points="66.2 271.1 70.3 273.4 72.1 272.4 68 270 66.2 271.1"/><polygon class="cls-122" points="72 263.5 83.3 270 85.4 262.3 72 263.5"/></g><circle class="cls-123" cx="268.9" cy="344.3" r="12.2"/><circle class="cls-124" cx="152.9" cy="289.1" r="12.2"/><circle class="cls-125" cx="115.9" cy="177.3" r="12.2"/><circle class="cls-126" cx="358" cy="229" r="14.7" transform="translate(-31.3 58.4) rotate(-8.9)"/><circle class="cls-127" cx="368.4" cy="234.9" r="11.1" transform="translate(35.9 518.5) rotate(-73)"/><path class="cls-128" d="M372.7,232.5a8.3,8.3,0,0,0-3.4,11.3,8.3,8.3,0,1,0,14.7-7.9A8.3,8.3,0,0,0,372.7,232.5Z"/><polygon class="cls-129" points="356.9 170.1 391 189.9 391 208 356.9 188.3 356.9 170.1"/><polygon class="cls-130" points="357.3 188.6 346.1 173 357.3 170.2 368.5 185.9 357.3 188.6"/><polygon class="cls-131" points="351.8 138 385.9 157.7 385.9 165.8 351.8 146.1 351.8 138"/><path class="cls-132" d="M355.7,148.3l-19.4-11.2a7.3,7.3,0,0,1-3-5.8h0c0-2.2,1.3-3.2,3-2.3l19.4,11.3c1.7.9,3,3.5,3,5.7h0C358.7,148.2,357.4,149.2,355.7,148.3Z"/><text class="cls-133" transform="matrix(1.84, 0.95, -0.28, 0.96, 244.37, 148.81)">PHP</text></g></g></svg>